<?xml version="1.0" encoding="utf-8" standalone="no"?>
<!DOCTYPE svg PUBLIC "-//W3C//DTD SVG 1.1//EN"
  "http://www.w3.org/Graphics/SVG/1.1/DTD/svg11.dtd">
<!-- Created with matplotlib (http://matplotlib.org/) -->
<svg height="288pt" version="1.1" viewBox="0 0 576 288" width="576pt" xmlns="http://www.w3.org/2000/svg" xmlns:xlink="http://www.w3.org/1999/xlink">
 <defs>
  <style type="text/css">
*{stroke-linecap:butt;stroke-linejoin:round;}
  </style>
 </defs>
 <g id="figure_1">
  <g id="patch_1">
   <path d="M 0 288 
L 576 288 
L 576 0 
L 0 0 
z
" style="fill:#ffffff;"/>
  </g>
  <g id="axes_1">
   <g id="patch_2">
    <path d="M 64.38 232.9 
L 553.2 232.9 
L 553.2 22.8 
L 64.38 22.8 
z
" style="fill:#ffffff;"/>
   </g>
   <g id="matplotlib.axis_1">
    <g id="xtick_1">
     <g id="line2d_1">
      <path clip-path="url(#pae49c77967)" d="M 156.03375 232.9 
L 156.03375 22.8 
" style="fill:none;opacity:0.5;stroke:#000000;stroke-dasharray:0.5,0.825;stroke-dashoffset:0;stroke-width:0.5;"/>
     </g>
     <g id="line2d_2">
      <defs>
       <path d="M 0 0 
L 0 12 
" id="m3405ea5a00" style="stroke:#000000;stroke-width:2;"/>
      </defs>
      <g>
       <use style="stroke:#000000;stroke-width:2;" x="156.03375" xlink:href="#m3405ea5a00" y="232.9"/>
      </g>
     </g>
     <g id="text_1">
      <!-- 0 -->
      <defs>
       <path d="M 47.59375 33 
Q 47.59375 26.296875 46.296875 20.34375 
Q 45 14.40625 42.453125 9.40625 
Q 39.90625 4.40625 35.40625 1.5 
Q 30.90625 -1.40625 25 -1.40625 
Q 18.90625 -1.40625 14.296875 1.6875 
Q 9.703125 4.796875 7.203125 10 
Q 4.703125 15.203125 3.546875 21.09375 
Q 2.40625 27 2.40625 33.59375 
Q 2.40625 42.90625 4.703125 50.34375 
Q 7 57.796875 12.34375 62.6875 
Q 17.703125 67.59375 25.40625 67.59375 
Q 35.203125 67.59375 41.390625 58 
Q 47.59375 48.40625 47.59375 33 
z
M 38 32.5 
Q 38 48.296875 34.640625 56.640625 
Q 31.296875 65 24.796875 65 
Q 18.59375 65 15.296875 56.59375 
Q 12 48.203125 12 32.90625 
Q 12 17.5 15.296875 9.34375 
Q 18.59375 1.203125 25 1.203125 
Q 31.296875 1.203125 34.640625 9.34375 
Q 38 17.5 38 32.5 
z
" id="STIXGeneral-Regular-30"/>
      </defs>
      <g transform="translate(148.03375 270.255)scale(0.32 -0.32)">
       <use xlink:href="#STIXGeneral-Regular-30"/>
      </g>
     </g>
    </g>
    <g id="xtick_2">
     <g id="line2d_3">
      <path clip-path="url(#pae49c77967)" d="M 308.79 232.9 
L 308.79 22.8 
" style="fill:none;opacity:0.5;stroke:#000000;stroke-dasharray:0.5,0.825;stroke-dashoffset:0;stroke-width:0.5;"/>
     </g>
     <g id="line2d_4">
      <g>
       <use style="stroke:#000000;stroke-width:2;" x="308.79" xlink:href="#m3405ea5a00" y="232.9"/>
      </g>
     </g>
     <g id="text_2">
      <!-- 2 -->
      <defs>
       <path d="M 47.40625 13.703125 
L 42 0 
L 2.90625 0 
L 2.90625 1.203125 
L 20.703125 20.09375 
Q 27.703125 27.40625 30.703125 33.5 
Q 33.703125 39.59375 33.703125 46.09375 
Q 33.703125 52.796875 30 56.5 
Q 26.296875 60.203125 19.796875 60.203125 
Q 14.40625 60.203125 11.25 57.390625 
Q 8.09375 54.59375 5.09375 47.203125 
L 3 47.703125 
Q 4.703125 57 9.84375 62.296875 
Q 15 67.59375 23.796875 67.59375 
Q 32.09375 67.59375 37.1875 62.59375 
Q 42.296875 57.59375 42.296875 50 
Q 42.296875 38.703125 29.5 25.203125 
L 13 7.59375 
L 36.40625 7.59375 
Q 39.703125 7.59375 41.640625 8.890625 
Q 43.59375 10.203125 46 14.296875 
z
" id="STIXGeneral-Regular-32"/>
      </defs>
      <g transform="translate(300.79 270.255)scale(0.32 -0.32)">
       <use xlink:href="#STIXGeneral-Regular-32"/>
      </g>
     </g>
    </g>
    <g id="xtick_3">
     <g id="line2d_5">
      <path clip-path="url(#pae49c77967)" d="M 461.54625 232.9 
L 461.54625 22.8 
" style="fill:none;opacity:0.5;stroke:#000000;stroke-dasharray:0.5,0.825;stroke-dashoffset:0;stroke-width:0.5;"/>
     </g>
     <g id="line2d_6">
      <g>
       <use style="stroke:#000000;stroke-width:2;" x="461.54625" xlink:href="#m3405ea5a00" y="232.9"/>
      </g>
     </g>
     <g id="text_3">
      <!-- 4 -->
      <defs>
       <path d="M 47.296875 16.703125 
L 37 16.703125 
L 37 0 
L 29.203125 0 
L 29.203125 16.703125 
L 1.203125 16.703125 
L 1.203125 23.09375 
L 32.59375 67.59375 
L 37 67.59375 
L 37 23.09375 
L 47.296875 23.09375 
z
M 29.203125 23.09375 
L 29.203125 57.40625 
L 5.203125 23.09375 
z
" id="STIXGeneral-Regular-34"/>
      </defs>
      <g transform="translate(453.54625 270.255)scale(0.32 -0.32)">
       <use xlink:href="#STIXGeneral-Regular-34"/>
      </g>
     </g>
    </g>
    <g id="xtick_4">
     <g id="line2d_7">
      <defs>
       <path d="M 0 0 
L 0 6 
" id="m1e4e44815e" style="stroke:#000000;"/>
      </defs>
      <g>
       <use style="stroke:#000000;" x="94.93125" xlink:href="#m1e4e44815e" y="232.9"/>
      </g>
     </g>
    </g>
    <g id="xtick_5">
     <g id="line2d_8">
      <g>
       <use style="stroke:#000000;" x="125.4825" xlink:href="#m1e4e44815e" y="232.9"/>
      </g>
     </g>
    </g>
    <g id="xtick_6">
     <g id="line2d_9">
      <g>
       <use style="stroke:#000000;" x="186.585" xlink:href="#m1e4e44815e" y="232.9"/>
      </g>
     </g>
    </g>
    <g id="xtick_7">
     <g id="line2d_10">
      <g>
       <use style="stroke:#000000;" x="217.13625" xlink:href="#m1e4e44815e" y="232.9"/>
      </g>
     </g>
    </g>
    <g id="xtick_8">
     <g id="line2d_11">
      <g>
       <use style="stroke:#000000;" x="247.6875" xlink:href="#m1e4e44815e" y="232.9"/>
      </g>
     </g>
    </g>
    <g id="xtick_9">
     <g id="line2d_12">
      <g>
       <use style="stroke:#000000;" x="278.23875" xlink:href="#m1e4e44815e" y="232.9"/>
      </g>
     </g>
    </g>
    <g id="xtick_10">
     <g id="line2d_13">
      <g>
       <use style="stroke:#000000;" x="308.79" xlink:href="#m1e4e44815e" y="232.9"/>
      </g>
     </g>
    </g>
    <g id="xtick_11">
     <g id="line2d_14">
      <g>
       <use style="stroke:#000000;" x="339.34125" xlink:href="#m1e4e44815e" y="232.9"/>
      </g>
     </g>
    </g>
    <g id="xtick_12">
     <g id="line2d_15">
      <g>
       <use style="stroke:#000000;" x="369.8925" xlink:href="#m1e4e44815e" y="232.9"/>
      </g>
     </g>
    </g>
    <g id="xtick_13">
     <g id="line2d_16">
      <g>
       <use style="stroke:#000000;" x="400.44375" xlink:href="#m1e4e44815e" y="232.9"/>
      </g>
     </g>
    </g>
    <g id="xtick_14">
     <g id="line2d_17">
      <g>
       <use style="stroke:#000000;" x="430.995" xlink:href="#m1e4e44815e" y="232.9"/>
      </g>
     </g>
    </g>
    <g id="xtick_15">
     <g id="line2d_18">
      <g>
       <use style="stroke:#000000;" x="461.54625" xlink:href="#m1e4e44815e" y="232.9"/>
      </g>
     </g>
    </g>
    <g id="xtick_16">
     <g id="line2d_19">
      <g>
       <use style="stroke:#000000;" x="492.0975" xlink:href="#m1e4e44815e" y="232.9"/>
      </g>
     </g>
    </g>
    <g id="xtick_17">
     <g id="line2d_20">
      <g>
       <use style="stroke:#000000;" x="522.64875" xlink:href="#m1e4e44815e" y="232.9"/>
      </g>
     </g>
    </g>
   </g>
   <g id="matplotlib.axis_2">
    <g id="ytick_1">
     <g id="line2d_21">
      <path clip-path="url(#pae49c77967)" d="M 64.38 223.350008 
L 553.2 223.350008 
" style="fill:none;opacity:0.5;stroke:#000000;stroke-dasharray:0.5,0.825;stroke-dashoffset:0;stroke-width:0.5;"/>
     </g>
     <g id="line2d_22">
      <defs>
       <path d="M 0 0 
L -12 0 
" id="m89d9cfacca" style="stroke:#000000;stroke-width:2;"/>
      </defs>
      <g>
       <use style="stroke:#000000;stroke-width:2;" x="64.38" xlink:href="#m89d9cfacca" y="223.350008"/>
      </g>
     </g>
     <g id="text_4">
      <!-- $\mathdefault{−1}$ -->
      <defs>
       <path d="M 62.09375 22 
L 6.40625 22 
L 6.40625 28.59375 
L 62.09375 28.59375 
z
" id="STIXGeneral-Regular-2212"/>
       <path d="M 39.40625 0 
L 11.796875 0 
L 11.796875 1.5 
Q 17.296875 1.796875 19.296875 3.546875 
Q 21.296875 5.296875 21.296875 9.5 
L 21.296875 54.40625 
Q 21.296875 59.296875 18.296875 59.296875 
Q 16.90625 59.296875 13.796875 58.09375 
L 11.09375 57.09375 
L 11.09375 58.5 
L 29 67.59375 
L 29.90625 67.296875 
L 29.90625 7.59375 
Q 29.90625 4.296875 31.90625 2.890625 
Q 33.90625 1.5 39.40625 1.5 
z
" id="STIXGeneral-Regular-31"/>
      </defs>
      <g transform="translate(10.8 234.277508)scale(0.32 -0.32)">
       <use transform="translate(0 0.40625)" xlink:href="#STIXGeneral-Regular-2212"/>
       <use transform="translate(68.499985 0.40625)" xlink:href="#STIXGeneral-Regular-31"/>
      </g>
     </g>
    </g>
    <g id="ytick_2">
     <g id="line2d_23">
      <path clip-path="url(#pae49c77967)" d="M 64.38 127.850004 
L 553.2 127.850004 
" style="fill:none;opacity:0.5;stroke:#000000;stroke-dasharray:0.5,0.825;stroke-dashoffset:0;stroke-width:0.5;"/>
     </g>
     <g id="line2d_24">
      <g>
       <use style="stroke:#000000;stroke-width:2;" x="64.38" xlink:href="#m89d9cfacca" y="127.850004"/>
      </g>
     </g>
     <g id="text_5">
      <!-- $\mathdefault{0}$ -->
      <g transform="translate(32.88 138.777504)scale(0.32 -0.32)">
       <use transform="translate(0 0.40625)" xlink:href="#STIXGeneral-Regular-30"/>
      </g>
     </g>
    </g>
    <g id="ytick_3">
     <g id="line2d_25">
      <path clip-path="url(#pae49c77967)" d="M 64.38 32.35 
L 553.2 32.35 
" style="fill:none;opacity:0.5;stroke:#000000;stroke-dasharray:0.5,0.825;stroke-dashoffset:0;stroke-width:0.5;"/>
     </g>
     <g id="line2d_26">
      <g>
       <use style="stroke:#000000;stroke-width:2;" x="64.38" xlink:href="#m89d9cfacca" y="32.35"/>
      </g>
     </g>
     <g id="text_6">
      <!-- $\mathdefault{1}$ -->
      <g transform="translate(32.88 43.2775)scale(0.32 -0.32)">
       <use transform="translate(0 0.40625)" xlink:href="#STIXGeneral-Regular-31"/>
      </g>
     </g>
    </g>
    <g id="ytick_4">
     <g id="line2d_27">
      <defs>
       <path d="M 0 0 
L -6 0 
" id="mbbf35ae5fe" style="stroke:#000000;"/>
      </defs>
      <g>
       <use style="stroke:#000000;" x="64.38" xlink:href="#mbbf35ae5fe" y="204.250007"/>
      </g>
     </g>
    </g>
    <g id="ytick_5">
     <g id="line2d_28">
      <g>
       <use style="stroke:#000000;" x="64.38" xlink:href="#mbbf35ae5fe" y="185.150006"/>
      </g>
     </g>
    </g>
    <g id="ytick_6">
     <g id="line2d_29">
      <g>
       <use style="stroke:#000000;" x="64.38" xlink:href="#mbbf35ae5fe" y="166.050005"/>
      </g>
     </g>
    </g>
    <g id="ytick_7">
     <g id="line2d_30">
      <g>
       <use style="stroke:#000000;" x="64.38" xlink:href="#mbbf35ae5fe" y="146.950005"/>
      </g>
     </g>
    </g>
    <g id="ytick_8">
     <g id="line2d_31">
      <g>
       <use style="stroke:#000000;" x="64.38" xlink:href="#mbbf35ae5fe" y="127.850004"/>
      </g>
     </g>
    </g>
    <g id="ytick_9">
     <g id="line2d_32">
      <g>
       <use style="stroke:#000000;" x="64.38" xlink:href="#mbbf35ae5fe" y="108.750003"/>
      </g>
     </g>
    </g>
    <g id="ytick_10">
     <g id="line2d_33">
      <g>
       <use style="stroke:#000000;" x="64.38" xlink:href="#mbbf35ae5fe" y="89.650002"/>
      </g>
     </g>
    </g>
    <g id="ytick_11">
     <g id="line2d_34">
      <g>
       <use style="stroke:#000000;" x="64.38" xlink:href="#mbbf35ae5fe" y="70.550001"/>
      </g>
     </g>
    </g>
    <g id="ytick_12">
     <g id="line2d_35">
      <g>
       <use style="stroke:#000000;" x="64.38" xlink:href="#mbbf35ae5fe" y="51.45"/>
      </g>
     </g>
    </g>
    <g id="ytick_13">
     <g id="line2d_36">
      <g>
       <use style="stroke:#000000;" x="64.38" xlink:href="#mbbf35ae5fe" y="32.35"/>
      </g>
     </g>
    </g>
   </g>
   <g id="line2d_37">
    <path clip-path="url(#pae49c77967)" d="M 156.03375 232.9 
L 156.03375 22.8 
" style="fill:none;stroke:#000000;stroke-linecap:square;stroke-width:3.5;"/>
   </g>
   <g id="line2d_38">
    <path clip-path="url(#pae49c77967)" d="M 64.38 127.850004 
L 553.2 127.850004 
" style="fill:none;stroke:#000000;stroke-linecap:square;stroke-width:3.5;"/>
   </g>
   <g id="line2d_39">
    <path clip-path="url(#pae49c77967)" d="M 438.632812 232.9 
L 438.632812 22.8 
" style="fill:none;stroke:#000000;stroke-dasharray:12.95,5.6;stroke-dashoffset:0;stroke-width:3.5;"/>
   </g>
   <g id="line2d_40">
    <path clip-path="url(#pae49c77967)" d="M 156.03375 127.850004 
L 163.438586 99.210589 
L 167.338843 85.025435 
L 170.560795 74.121664 
L 173.358805 65.410637 
L 175.874188 58.281579 
L 178.16347 52.438221 
L 180.283175 47.622409 
L 182.233303 43.729373 
L 184.042118 40.601528 
L 185.709619 38.145327 
L 187.264069 36.235346 
L 188.733732 34.773755 
L 190.090343 33.726285 
L 191.390428 32.997363 
L 192.633989 32.55386 
L 193.821023 32.363041 
L 195.008058 32.399809 
L 196.195093 32.664075 
L 197.41039 33.169661 
L 198.653951 33.931842 
L 199.954036 34.9913 
L 201.33891 36.411777 
L 202.808572 38.243514 
L 204.391285 40.582018 
L 206.087049 43.497535 
L 207.895864 47.059185 
L 209.845993 51.399211 
L 211.965698 56.673245 
L 214.283242 63.056761 
L 216.826888 70.737954 
L 219.653161 80.001292 
L 222.903375 91.444466 
L 226.860158 106.231252 
L 233.049696 130.355152 
L 239.861015 156.655391 
L 243.761272 170.830053 
L 246.954961 181.630425 
L 249.752971 190.337035 
L 252.268354 197.461581 
L 254.557636 203.300431 
L 256.677341 208.111763 
L 258.627469 212.000446 
L 260.436284 215.124082 
L 262.103785 217.576277 
L 263.658235 219.482432 
L 265.127898 220.940338 
L 266.484509 221.984361 
L 267.784594 222.709948 
L 269.028155 223.150242 
L 270.215189 223.337987 
L 271.402224 223.298143 
L 272.589259 223.030805 
L 273.804556 222.522088 
L 275.048117 221.756724 
L 276.376465 220.667907 
L 277.761339 219.237864 
L 279.231001 217.396156 
L 280.813714 215.047161 
L 282.509478 212.120737 
L 284.346556 208.488469 
L 286.324947 204.06278 
L 288.444652 198.762084 
L 290.762196 192.351725 
L 293.305842 184.644125 
L 296.160378 175.259195 
L 299.438855 163.68335 
L 303.452163 148.649594 
L 309.952591 123.284951 
L 316.368232 98.561554 
L 320.240226 84.516635 
L 323.433915 73.742752 
L 326.231925 65.063995 
L 328.747308 57.967877 
L 331.03659 52.157423 
L 333.128032 47.434132 
L 335.078161 43.565158 
L 336.886975 40.460579 
L 338.554477 38.02652 
L 340.108927 36.137685 
L 341.550326 34.720977 
L 342.906937 33.686478 
L 344.207023 32.970102 
L 345.450583 32.538673 
L 346.637618 32.359418 
L 347.824653 32.407757 
L 349.011688 32.683577 
L 350.226985 33.200943 
L 351.470545 33.975096 
L 352.798894 35.073209 
L 354.183768 36.512813 
L 355.681693 38.403324 
L 357.264406 40.769486 
L 358.96017 43.713753 
L 360.797247 47.364611 
L 362.775638 51.809339 
L 364.923606 57.203823 
L 367.24115 63.640914 
L 369.813059 71.464353 
L 372.667595 80.88167 
L 375.974334 92.59035 
L 380.044168 107.871186 
L 386.912012 134.694321 
L 392.931974 157.831584 
L 396.747443 171.634639 
L 399.912869 182.283156 
L 402.682617 190.850518 
L 405.169737 197.850629 
L 407.459019 203.648574 
L 409.550461 208.359614 
L 411.500589 212.216537 
L 413.281141 215.264822 
L 414.948643 217.694868 
L 416.503093 219.579873 
L 417.944492 220.992964 
L 419.301103 222.024014 
L 420.601189 222.737054 
L 421.816487 223.158306 
L 423.003521 223.339903 
L 424.190556 223.293907 
L 425.377591 223.020428 
L 426.592888 222.505448 
L 427.836449 221.733719 
L 429.164797 220.63817 
L 430.549671 219.201203 
L 432.047596 217.313493 
L 433.630309 214.95022 
L 435.326073 212.008957 
L 437.16315 208.361227 
L 438.632812 205.11113 
L 438.632812 205.11113 
" style="fill:none;stroke:#1b9e77;stroke-linecap:square;stroke-width:3.5;"/>
   </g>
   <g id="line2d_41">
    <path clip-path="url(#pae49c77967)" d="M 438.632812 127.850004 
L 446.037648 99.210589 
L 449.937906 85.025435 
L 453.159857 74.121664 
L 455.957868 65.410637 
L 458.473251 58.281579 
L 460.762532 52.438221 
L 462.882237 47.622409 
L 464.832366 43.729373 
L 466.64118 40.601528 
L 468.308682 38.145327 
L 469.863132 36.235346 
L 471.332794 34.773755 
L 472.689405 33.726285 
L 473.989491 32.997363 
L 475.233051 32.55386 
L 476.420086 32.363041 
L 477.607121 32.399809 
L 478.794155 32.664075 
L 480.009453 33.169661 
L 481.253013 33.931842 
L 482.553099 34.9913 
L 483.937973 36.411777 
L 485.407635 38.243514 
L 486.990348 40.582018 
L 488.686112 43.497535 
L 490.494927 47.059185 
L 492.445055 51.399211 
L 494.56476 56.673245 
L 496.882304 63.056761 
L 499.42595 70.737954 
L 502.252223 80.001292 
L 505.502438 91.444466 
L 509.45922 106.231252 
L 515.648759 130.355152 
L 522.460077 156.655391 
L 526.360334 170.830053 
L 529.554023 181.630425 
L 532.352034 190.337035 
L 534.867417 197.461581 
L 537.156698 203.300431 
L 539.276403 208.111763 
L 541.226532 212.000446 
L 543.035346 215.124082 
L 544.702848 217.576277 
L 546.257298 219.482432 
L 547.72696 220.940338 
L 549.083571 221.984361 
L 550.383657 222.709948 
L 551.627217 223.150242 
L 552.814252 223.337987 
L 553.20993 223.35 
L 553.20993 223.35 
" style="fill:none;stroke:#d95f02;stroke-linecap:square;stroke-width:3.5;"/>
   </g>
   <g id="line2d_42">
    <path clip-path="url(#pae49c77967)" d="M 64.377708 32.35 
L 65.564743 32.463369 
L 66.751778 32.804086 
L 67.967075 33.387595 
L 69.238898 34.250924 
L 70.567247 35.425988 
L 71.980383 36.978777 
L 73.478308 38.959703 
L 75.089284 41.466376 
L 76.813311 44.568633 
L 78.678651 48.396134 
L 80.685305 53.034867 
L 82.861535 58.640292 
L 85.235605 65.385667 
L 87.864039 73.545125 
L 90.803363 83.416015 
L 94.223154 95.706422 
L 98.575615 112.233725 
L 112.59393 166.122378 
L 115.985458 177.916725 
L 118.924782 187.359428 
L 121.524954 194.992522 
L 123.899023 201.293825 
L 126.075254 206.456634 
L 128.081908 210.660252 
L 129.947248 214.06272 
L 131.671275 216.756748 
L 133.28225 218.870458 
L 134.780175 220.477571 
L 136.165049 221.650785 
L 137.493397 222.49025 
L 138.736958 223.020178 
L 139.952255 223.297548 
L 141.13929 223.338271 
L 142.326325 223.151404 
L 143.513359 222.737393 
L 144.75692 222.061123 
L 146.057005 221.090658 
L 147.413617 219.793846 
L 148.855016 218.102492 
L 150.409466 215.923246 
L 152.076967 213.185639 
L 153.85752 209.819773 
L 155.779385 205.69419 
L 156.03375 205.11113 
L 156.03375 205.11113 
" style="fill:none;stroke:#d95f02;stroke-linecap:square;stroke-width:3.5;"/>
   </g>
   <g id="patch_3">
    <path d="M 64.38 232.9 
L 64.38 22.8 
" style="fill:none;stroke:#000000;stroke-linecap:square;stroke-linejoin:miter;stroke-width:0.8;"/>
   </g>
   <g id="patch_4">
    <path d="M 553.2 232.9 
L 553.2 22.8 
" style="fill:none;stroke:#000000;stroke-linecap:square;stroke-linejoin:miter;stroke-width:0.8;"/>
   </g>
   <g id="patch_5">
    <path d="M 64.38 232.9 
L 553.2 232.9 
" style="fill:none;stroke:#000000;stroke-linecap:square;stroke-linejoin:miter;stroke-width:0.8;"/>
   </g>
   <g id="patch_6">
    <path d="M 64.38 22.8 
L 553.2 22.8 
" style="fill:none;stroke:#000000;stroke-linecap:square;stroke-linejoin:miter;stroke-width:0.8;"/>
   </g>
  </g>
 </g>
 <defs>
  <clipPath id="pae49c77967">
   <rect height="210.1" width="488.82" x="64.38" y="22.8"/>
  </clipPath>
 </defs>
</svg>
