<?xml version="1.0" encoding="utf-8" standalone="no"?>
<!DOCTYPE svg PUBLIC "-//W3C//DTD SVG 1.1//EN"
  "http://www.w3.org/Graphics/SVG/1.1/DTD/svg11.dtd">
<!-- Created with matplotlib (http://matplotlib.org/) -->
<svg height="288pt" version="1.1" viewBox="0 0 576 288" width="576pt" xmlns="http://www.w3.org/2000/svg" xmlns:xlink="http://www.w3.org/1999/xlink">
 <defs>
  <style type="text/css">
*{stroke-linecap:butt;stroke-linejoin:round;}
  </style>
 </defs>
 <g id="figure_1">
  <g id="patch_1">
   <path d="M 0 288 
L 576 288 
L 576 0 
L 0 0 
z
" style="fill:#ffffff;"/>
  </g>
  <g id="axes_1">
   <g id="patch_2">
    <path d="M 64.38 232.9 
L 553.2 232.9 
L 553.2 22.8 
L 64.38 22.8 
z
" style="fill:#ffffff;"/>
   </g>
   <g id="matplotlib.axis_1">
    <g id="xtick_1">
     <g id="line2d_1">
      <path clip-path="url(#p3a16a55637)" d="M 156.03375 232.9 
L 156.03375 22.8 
" style="fill:none;opacity:0.5;stroke:#000000;stroke-dasharray:0.5,0.825;stroke-dashoffset:0;stroke-width:0.5;"/>
     </g>
     <g id="line2d_2">
      <defs>
       <path d="M 0 0 
L 0 12 
" id="m193cc6946f" style="stroke:#000000;stroke-width:2;"/>
      </defs>
      <g>
       <use style="stroke:#000000;stroke-width:2;" x="156.03375" xlink:href="#m193cc6946f" y="232.9"/>
      </g>
     </g>
     <g id="text_1">
      <!-- 0 -->
      <defs>
       <path d="M 47.59375 33 
Q 47.59375 26.296875 46.296875 20.34375 
Q 45 14.40625 42.453125 9.40625 
Q 39.90625 4.40625 35.40625 1.5 
Q 30.90625 -1.40625 25 -1.40625 
Q 18.90625 -1.40625 14.296875 1.6875 
Q 9.703125 4.796875 7.203125 10 
Q 4.703125 15.203125 3.546875 21.09375 
Q 2.40625 27 2.40625 33.59375 
Q 2.40625 42.90625 4.703125 50.34375 
Q 7 57.796875 12.34375 62.6875 
Q 17.703125 67.59375 25.40625 67.59375 
Q 35.203125 67.59375 41.390625 58 
Q 47.59375 48.40625 47.59375 33 
z
M 38 32.5 
Q 38 48.296875 34.640625 56.640625 
Q 31.296875 65 24.796875 65 
Q 18.59375 65 15.296875 56.59375 
Q 12 48.203125 12 32.90625 
Q 12 17.5 15.296875 9.34375 
Q 18.59375 1.203125 25 1.203125 
Q 31.296875 1.203125 34.640625 9.34375 
Q 38 17.5 38 32.5 
z
" id="STIXGeneral-Regular-30"/>
      </defs>
      <g transform="translate(148.03375 270.255)scale(0.32 -0.32)">
       <use xlink:href="#STIXGeneral-Regular-30"/>
      </g>
     </g>
    </g>
    <g id="xtick_2">
     <g id="line2d_3">
      <path clip-path="url(#p3a16a55637)" d="M 308.79 232.9 
L 308.79 22.8 
" style="fill:none;opacity:0.5;stroke:#000000;stroke-dasharray:0.5,0.825;stroke-dashoffset:0;stroke-width:0.5;"/>
     </g>
     <g id="line2d_4">
      <g>
       <use style="stroke:#000000;stroke-width:2;" x="308.79" xlink:href="#m193cc6946f" y="232.9"/>
      </g>
     </g>
     <g id="text_2">
      <!-- 2 -->
      <defs>
       <path d="M 47.40625 13.703125 
L 42 0 
L 2.90625 0 
L 2.90625 1.203125 
L 20.703125 20.09375 
Q 27.703125 27.40625 30.703125 33.5 
Q 33.703125 39.59375 33.703125 46.09375 
Q 33.703125 52.796875 30 56.5 
Q 26.296875 60.203125 19.796875 60.203125 
Q 14.40625 60.203125 11.25 57.390625 
Q 8.09375 54.59375 5.09375 47.203125 
L 3 47.703125 
Q 4.703125 57 9.84375 62.296875 
Q 15 67.59375 23.796875 67.59375 
Q 32.09375 67.59375 37.1875 62.59375 
Q 42.296875 57.59375 42.296875 50 
Q 42.296875 38.703125 29.5 25.203125 
L 13 7.59375 
L 36.40625 7.59375 
Q 39.703125 7.59375 41.640625 8.890625 
Q 43.59375 10.203125 46 14.296875 
z
" id="STIXGeneral-Regular-32"/>
      </defs>
      <g transform="translate(300.79 270.255)scale(0.32 -0.32)">
       <use xlink:href="#STIXGeneral-Regular-32"/>
      </g>
     </g>
    </g>
    <g id="xtick_3">
     <g id="line2d_5">
      <path clip-path="url(#p3a16a55637)" d="M 461.54625 232.9 
L 461.54625 22.8 
" style="fill:none;opacity:0.5;stroke:#000000;stroke-dasharray:0.5,0.825;stroke-dashoffset:0;stroke-width:0.5;"/>
     </g>
     <g id="line2d_6">
      <g>
       <use style="stroke:#000000;stroke-width:2;" x="461.54625" xlink:href="#m193cc6946f" y="232.9"/>
      </g>
     </g>
     <g id="text_3">
      <!-- 4 -->
      <defs>
       <path d="M 47.296875 16.703125 
L 37 16.703125 
L 37 0 
L 29.203125 0 
L 29.203125 16.703125 
L 1.203125 16.703125 
L 1.203125 23.09375 
L 32.59375 67.59375 
L 37 67.59375 
L 37 23.09375 
L 47.296875 23.09375 
z
M 29.203125 23.09375 
L 29.203125 57.40625 
L 5.203125 23.09375 
z
" id="STIXGeneral-Regular-34"/>
      </defs>
      <g transform="translate(453.54625 270.255)scale(0.32 -0.32)">
       <use xlink:href="#STIXGeneral-Regular-34"/>
      </g>
     </g>
    </g>
    <g id="xtick_4">
     <g id="line2d_7">
      <defs>
       <path d="M 0 0 
L 0 6 
" id="me917868a5d" style="stroke:#000000;"/>
      </defs>
      <g>
       <use style="stroke:#000000;" x="94.93125" xlink:href="#me917868a5d" y="232.9"/>
      </g>
     </g>
    </g>
    <g id="xtick_5">
     <g id="line2d_8">
      <g>
       <use style="stroke:#000000;" x="125.4825" xlink:href="#me917868a5d" y="232.9"/>
      </g>
     </g>
    </g>
    <g id="xtick_6">
     <g id="line2d_9">
      <g>
       <use style="stroke:#000000;" x="186.585" xlink:href="#me917868a5d" y="232.9"/>
      </g>
     </g>
    </g>
    <g id="xtick_7">
     <g id="line2d_10">
      <g>
       <use style="stroke:#000000;" x="217.13625" xlink:href="#me917868a5d" y="232.9"/>
      </g>
     </g>
    </g>
    <g id="xtick_8">
     <g id="line2d_11">
      <g>
       <use style="stroke:#000000;" x="247.6875" xlink:href="#me917868a5d" y="232.9"/>
      </g>
     </g>
    </g>
    <g id="xtick_9">
     <g id="line2d_12">
      <g>
       <use style="stroke:#000000;" x="278.23875" xlink:href="#me917868a5d" y="232.9"/>
      </g>
     </g>
    </g>
    <g id="xtick_10">
     <g id="line2d_13">
      <g>
       <use style="stroke:#000000;" x="308.79" xlink:href="#me917868a5d" y="232.9"/>
      </g>
     </g>
    </g>
    <g id="xtick_11">
     <g id="line2d_14">
      <g>
       <use style="stroke:#000000;" x="339.34125" xlink:href="#me917868a5d" y="232.9"/>
      </g>
     </g>
    </g>
    <g id="xtick_12">
     <g id="line2d_15">
      <g>
       <use style="stroke:#000000;" x="369.8925" xlink:href="#me917868a5d" y="232.9"/>
      </g>
     </g>
    </g>
    <g id="xtick_13">
     <g id="line2d_16">
      <g>
       <use style="stroke:#000000;" x="400.44375" xlink:href="#me917868a5d" y="232.9"/>
      </g>
     </g>
    </g>
    <g id="xtick_14">
     <g id="line2d_17">
      <g>
       <use style="stroke:#000000;" x="430.995" xlink:href="#me917868a5d" y="232.9"/>
      </g>
     </g>
    </g>
    <g id="xtick_15">
     <g id="line2d_18">
      <g>
       <use style="stroke:#000000;" x="461.54625" xlink:href="#me917868a5d" y="232.9"/>
      </g>
     </g>
    </g>
    <g id="xtick_16">
     <g id="line2d_19">
      <g>
       <use style="stroke:#000000;" x="492.0975" xlink:href="#me917868a5d" y="232.9"/>
      </g>
     </g>
    </g>
    <g id="xtick_17">
     <g id="line2d_20">
      <g>
       <use style="stroke:#000000;" x="522.64875" xlink:href="#me917868a5d" y="232.9"/>
      </g>
     </g>
    </g>
   </g>
   <g id="matplotlib.axis_2">
    <g id="ytick_1">
     <g id="line2d_21">
      <path clip-path="url(#p3a16a55637)" d="M 64.38 223.350011 
L 553.2 223.350011 
" style="fill:none;opacity:0.5;stroke:#000000;stroke-dasharray:0.5,0.825;stroke-dashoffset:0;stroke-width:0.5;"/>
     </g>
     <g id="line2d_22">
      <defs>
       <path d="M 0 0 
L -12 0 
" id="m06c1ca524d" style="stroke:#000000;stroke-width:2;"/>
      </defs>
      <g>
       <use style="stroke:#000000;stroke-width:2;" x="64.38" xlink:href="#m06c1ca524d" y="223.350011"/>
      </g>
     </g>
     <g id="text_4">
      <!-- $\mathdefault{−1}$ -->
      <defs>
       <path d="M 62.09375 22 
L 6.40625 22 
L 6.40625 28.59375 
L 62.09375 28.59375 
z
" id="STIXGeneral-Regular-2212"/>
       <path d="M 39.40625 0 
L 11.796875 0 
L 11.796875 1.5 
Q 17.296875 1.796875 19.296875 3.546875 
Q 21.296875 5.296875 21.296875 9.5 
L 21.296875 54.40625 
Q 21.296875 59.296875 18.296875 59.296875 
Q 16.90625 59.296875 13.796875 58.09375 
L 11.09375 57.09375 
L 11.09375 58.5 
L 29 67.59375 
L 29.90625 67.296875 
L 29.90625 7.59375 
Q 29.90625 4.296875 31.90625 2.890625 
Q 33.90625 1.5 39.40625 1.5 
z
" id="STIXGeneral-Regular-31"/>
      </defs>
      <g transform="translate(10.8 234.277511)scale(0.32 -0.32)">
       <use transform="translate(0 0.40625)" xlink:href="#STIXGeneral-Regular-2212"/>
       <use transform="translate(68.499985 0.40625)" xlink:href="#STIXGeneral-Regular-31"/>
      </g>
     </g>
    </g>
    <g id="ytick_2">
     <g id="line2d_23">
      <path clip-path="url(#p3a16a55637)" d="M 64.38 127.85 
L 553.2 127.85 
" style="fill:none;opacity:0.5;stroke:#000000;stroke-dasharray:0.5,0.825;stroke-dashoffset:0;stroke-width:0.5;"/>
     </g>
     <g id="line2d_24">
      <g>
       <use style="stroke:#000000;stroke-width:2;" x="64.38" xlink:href="#m06c1ca524d" y="127.85"/>
      </g>
     </g>
     <g id="text_5">
      <!-- $\mathdefault{0}$ -->
      <g transform="translate(32.88 138.7775)scale(0.32 -0.32)">
       <use transform="translate(0 0.40625)" xlink:href="#STIXGeneral-Regular-30"/>
      </g>
     </g>
    </g>
    <g id="ytick_3">
     <g id="line2d_25">
      <path clip-path="url(#p3a16a55637)" d="M 64.38 32.349989 
L 553.2 32.349989 
" style="fill:none;opacity:0.5;stroke:#000000;stroke-dasharray:0.5,0.825;stroke-dashoffset:0;stroke-width:0.5;"/>
     </g>
     <g id="line2d_26">
      <g>
       <use style="stroke:#000000;stroke-width:2;" x="64.38" xlink:href="#m06c1ca524d" y="32.349989"/>
      </g>
     </g>
     <g id="text_6">
      <!-- $\mathdefault{1}$ -->
      <g transform="translate(32.88 43.277489)scale(0.32 -0.32)">
       <use transform="translate(0 0.40625)" xlink:href="#STIXGeneral-Regular-31"/>
      </g>
     </g>
    </g>
    <g id="ytick_4">
     <g id="line2d_27">
      <defs>
       <path d="M 0 0 
L -6 0 
" id="md8fc2dc83a" style="stroke:#000000;"/>
      </defs>
      <g>
       <use style="stroke:#000000;" x="64.38" xlink:href="#md8fc2dc83a" y="204.250008"/>
      </g>
     </g>
    </g>
    <g id="ytick_5">
     <g id="line2d_28">
      <g>
       <use style="stroke:#000000;" x="64.38" xlink:href="#md8fc2dc83a" y="185.150006"/>
      </g>
     </g>
    </g>
    <g id="ytick_6">
     <g id="line2d_29">
      <g>
       <use style="stroke:#000000;" x="64.38" xlink:href="#md8fc2dc83a" y="166.050004"/>
      </g>
     </g>
    </g>
    <g id="ytick_7">
     <g id="line2d_30">
      <g>
       <use style="stroke:#000000;" x="64.38" xlink:href="#md8fc2dc83a" y="146.950002"/>
      </g>
     </g>
    </g>
    <g id="ytick_8">
     <g id="line2d_31">
      <g>
       <use style="stroke:#000000;" x="64.38" xlink:href="#md8fc2dc83a" y="127.85"/>
      </g>
     </g>
    </g>
    <g id="ytick_9">
     <g id="line2d_32">
      <g>
       <use style="stroke:#000000;" x="64.38" xlink:href="#md8fc2dc83a" y="108.749998"/>
      </g>
     </g>
    </g>
    <g id="ytick_10">
     <g id="line2d_33">
      <g>
       <use style="stroke:#000000;" x="64.38" xlink:href="#md8fc2dc83a" y="89.649996"/>
      </g>
     </g>
    </g>
    <g id="ytick_11">
     <g id="line2d_34">
      <g>
       <use style="stroke:#000000;" x="64.38" xlink:href="#md8fc2dc83a" y="70.549994"/>
      </g>
     </g>
    </g>
    <g id="ytick_12">
     <g id="line2d_35">
      <g>
       <use style="stroke:#000000;" x="64.38" xlink:href="#md8fc2dc83a" y="51.449992"/>
      </g>
     </g>
    </g>
    <g id="ytick_13">
     <g id="line2d_36">
      <g>
       <use style="stroke:#000000;" x="64.38" xlink:href="#md8fc2dc83a" y="32.349989"/>
      </g>
     </g>
    </g>
   </g>
   <g id="line2d_37">
    <path clip-path="url(#p3a16a55637)" d="M 156.03375 232.9 
L 156.03375 22.8 
" style="fill:none;stroke:#000000;stroke-dasharray:12.95,5.6;stroke-dashoffset:0;stroke-width:3.5;"/>
   </g>
   <g id="line2d_38">
    <path clip-path="url(#p3a16a55637)" d="M 64.38 127.85 
L 553.2 127.85 
" style="fill:none;stroke:#000000;stroke-linecap:square;stroke-width:3.5;"/>
   </g>
   <g id="line2d_39">
    <path clip-path="url(#p3a16a55637)" d="M 438.632812 232.9 
L 438.632812 22.8 
" style="fill:none;stroke:#000000;stroke-dasharray:12.95,5.6;stroke-dashoffset:0;stroke-width:3.5;"/>
   </g>
   <g id="line2d_40">
    <path clip-path="url(#p3a16a55637)" d="M 79.655625 127.85 
L 87.03449 156.392078 
L 90.930164 170.56726 
L 94.138366 181.434378 
L 96.934085 190.150765 
L 99.454815 197.307326 
L 101.746388 203.167801 
L 103.854635 207.970002 
L 105.825388 211.915175 
L 107.612814 215.016543 
L 109.308578 217.523763 
L 110.866848 219.443457 
L 112.333455 220.906737 
L 113.708398 221.971186 
L 114.991679 222.693196 
L 116.229129 223.139235 
L 117.420747 223.335492 
L 118.612364 223.302405 
L 119.803982 223.040055 
L 120.9956 222.549071 
L 122.23305 221.798479 
L 123.562162 220.72131 
L 124.937106 219.315028 
L 126.403712 217.492763 
L 127.961982 215.199452 
L 129.657746 212.296545 
L 131.491004 208.696773 
L 133.461757 204.315181 
L 135.570004 199.072757 
L 137.861577 192.768788 
L 140.382307 185.17106 
L 143.223857 175.87259 
L 146.477891 164.427456 
L 150.419396 149.708337 
L 156.51498 125.959795 
L 163.481362 99.050332 
L 167.377036 84.891385 
L 170.585238 74.042304 
L 173.380957 65.344815 
L 175.901687 58.207613 
L 178.19326 52.366471 
L 180.301507 47.583358 
L 182.226428 43.742151 
L 184.013855 40.64672 
L 185.709619 38.145317 
L 187.267889 36.231101 
L 188.734495 34.773073 
L 190.109439 33.713615 
L 191.39272 32.996307 
L 192.630169 32.55483 
L 193.821787 32.362981 
L 195.013405 32.400479 
L 196.205023 32.667234 
L 197.396641 33.162605 
L 198.63409 33.917723 
L 199.963203 34.999706 
L 201.338146 36.410901 
L 202.804753 38.238316 
L 204.363023 40.536975 
L 206.058787 43.44553 
L 207.892045 47.051178 
L 209.862798 51.43878 
L 211.971045 56.687241 
L 214.262618 62.99726 
L 216.783348 70.600963 
L 219.624898 79.905238 
L 222.878932 91.355712 
L 226.820437 106.079299 
L 232.961852 130.010191 
L 239.836571 156.56383 
L 243.732245 170.728201 
L 246.940447 181.583304 
L 249.736166 190.287101 
L 252.256896 197.430762 
L 254.548469 203.278354 
L 256.656716 208.067833 
L 258.581638 211.915175 
L 260.369064 215.016543 
L 262.064828 217.523763 
L 263.623098 219.443457 
L 265.089705 220.906737 
L 266.464648 221.971186 
L 267.747929 222.693196 
L 268.985379 223.139235 
L 270.176997 223.335492 
L 271.368614 223.302405 
L 272.560232 223.040055 
L 273.75185 222.549071 
L 274.9893 221.798479 
L 276.318412 220.72131 
L 277.693356 219.315028 
L 279.159962 217.492763 
L 280.718232 215.199452 
L 282.413996 212.296545 
L 284.247254 208.696773 
L 286.218007 204.315181 
L 288.326254 199.072757 
L 290.617827 192.768788 
L 293.138557 185.17106 
L 295.980107 175.87259 
L 299.234141 164.427456 
L 303.175646 149.708337 
L 309.27123 125.959795 
L 316.237612 99.050332 
L 320.133286 84.891385 
L 323.341488 74.042304 
L 326.137207 65.344815 
L 328.657937 58.207613 
L 330.94951 52.366471 
L 333.057757 47.583358 
L 334.982678 43.742151 
L 336.770105 40.64672 
L 338.465869 38.145317 
L 340.024139 36.231101 
L 341.490745 34.773073 
L 342.865689 33.713615 
L 344.14897 32.996307 
L 345.386419 32.55483 
L 346.578037 32.362981 
L 347.769655 32.400479 
L 348.961273 32.667234 
L 350.152891 33.162605 
L 351.39034 33.917723 
L 352.719453 34.999706 
L 354.094396 36.410901 
L 355.561003 38.238316 
L 357.119273 40.536975 
L 358.815037 43.44553 
L 360.648295 47.051178 
L 362.619048 51.43878 
L 364.727295 56.687241 
L 367.018868 62.99726 
L 369.539598 70.600963 
L 372.381148 79.905238 
L 375.635182 91.355712 
L 379.576687 106.079299 
L 385.718102 130.010191 
L 392.592821 156.56383 
L 396.488495 170.728201 
L 399.696697 181.583304 
L 402.492416 190.287101 
L 405.013146 197.430762 
L 407.304719 203.278354 
L 409.412966 208.067833 
L 411.337888 211.915175 
L 413.125314 215.016543 
L 414.821078 217.523763 
L 416.379348 219.443457 
L 417.845955 220.906737 
L 419.220898 221.971186 
L 420.504179 222.693196 
L 421.741629 223.139235 
L 422.933247 223.335492 
L 424.124864 223.302405 
L 425.316482 223.040055 
L 426.5081 222.549071 
L 427.74555 221.798479 
L 429.074662 220.72131 
L 430.449606 219.315028 
L 431.916212 217.492763 
L 433.474482 215.199452 
L 435.170246 212.296545 
L 437.003504 208.696773 
L 438.974257 204.315181 
L 441.082504 199.072757 
L 443.374077 192.768788 
L 445.894807 185.17106 
L 448.736357 175.87259 
L 451.990391 164.427456 
L 455.931896 149.708337 
L 462.02748 125.959795 
L 468.993862 99.050332 
L 472.889536 84.891385 
L 476.097738 74.042304 
L 478.893457 65.344815 
L 481.414187 58.207613 
L 483.70576 52.366471 
L 485.814007 47.583358 
L 487.738928 43.742151 
L 489.526355 40.64672 
L 491.222119 38.145317 
L 492.780389 36.231101 
L 494.246995 34.773073 
L 495.621939 33.713615 
L 496.90522 32.996307 
L 498.142669 32.55483 
L 499.334287 32.362981 
L 500.525905 32.400479 
L 501.717523 32.667234 
L 502.909141 33.162605 
L 504.14659 33.917723 
L 505.475703 34.999706 
L 506.850646 36.410901 
L 508.317253 38.238316 
L 509.875523 40.536975 
L 511.571287 43.44553 
L 513.404545 47.051178 
L 515.375298 51.43878 
L 517.483545 56.687241 
L 519.775118 62.99726 
L 522.295848 70.600963 
L 525.137398 79.905238 
L 528.391432 91.355712 
L 532.332937 106.079299 
L 537.924375 127.85 
L 537.924375 127.85 
" style="fill:none;stroke:#1b9e77;stroke-linecap:square;stroke-width:3.5;"/>
   </g>
   <g id="patch_3">
    <path d="M 64.38 232.9 
L 64.38 22.8 
" style="fill:none;stroke:#000000;stroke-linecap:square;stroke-linejoin:miter;stroke-width:0.8;"/>
   </g>
   <g id="patch_4">
    <path d="M 553.2 232.9 
L 553.2 22.8 
" style="fill:none;stroke:#000000;stroke-linecap:square;stroke-linejoin:miter;stroke-width:0.8;"/>
   </g>
   <g id="patch_5">
    <path d="M 64.38 232.9 
L 553.2 232.9 
" style="fill:none;stroke:#000000;stroke-linecap:square;stroke-linejoin:miter;stroke-width:0.8;"/>
   </g>
   <g id="patch_6">
    <path d="M 64.38 22.8 
L 553.2 22.8 
" style="fill:none;stroke:#000000;stroke-linecap:square;stroke-linejoin:miter;stroke-width:0.8;"/>
   </g>
   <g id="patch_7">
    <path d="M 435.518267 46.674991 
Q 297.334792 46.674991 159.151317 46.674991 
" style="fill:none;stroke:#d7191c;stroke-linecap:round;"/>
    <path d="M 431.518267 44.674991 
L 435.518267 46.674991 
L 431.518267 48.674991 
" style="fill:none;stroke:#d7191c;stroke-linecap:round;"/>
    <path d="M 163.151317 48.674991 
L 159.151317 46.674991 
L 163.151317 44.674991 
" style="fill:none;stroke:#d7191c;stroke-linecap:round;"/>
   </g>
   <g id="text_7">
    <g id="patch_8">
     <path d="M 290.053281 63.574991 
L 304.613281 63.574991 
Q 309.813281 63.574991 309.813281 58.374991 
L 309.813281 34.974991 
Q 309.813281 29.774991 304.613281 29.774991 
L 290.053281 29.774991 
Q 284.853281 29.774991 284.853281 34.974991 
L 284.853281 58.374991 
Q 284.853281 63.574991 290.053281 63.574991 
z
" style="fill:#ffffff;stroke:#000000;stroke-linejoin:miter;"/>
    </g>
    <!-- $L$ -->
    <defs>
     <path d="M 55.90625 18 
L 50.09375 0 
L -0.796875 0 
L -0.796875 1.59375 
Q 3.40625 2 4.703125 3.296875 
Q 6 4.59375 7.40625 9.40625 
L 19.59375 53.203125 
Q 20.703125 56.90625 20.703125 59.40625 
Q 20.703125 61.59375 19.140625 62.5 
Q 17.59375 63.40625 13 63.703125 
L 13 65.296875 
L 40.296875 65.296875 
L 40.296875 63.703125 
Q 35.703125 63.40625 33.546875 61.796875 
Q 31.40625 60.203125 30.203125 56 
L 18.203125 13.09375 
Q 17.203125 9.296875 17.203125 7.703125 
Q 17.203125 5.40625 19.390625 4.5 
Q 21.59375 3.59375 27.703125 3.59375 
Q 35.40625 3.59375 38.75 4.296875 
Q 42.09375 5 45.703125 7.40625 
Q 49.796875 10.09375 53.90625 18.59375 
z
" id="STIXGeneral-Italic-4c"/>
    </defs>
    <g transform="translate(290.053281 52.732178)scale(0.26 -0.26)">
     <use transform="translate(0 0.703125)" xlink:href="#STIXGeneral-Italic-4c"/>
    </g>
   </g>
  </g>
 </g>
 <defs>
  <clipPath id="p3a16a55637">
   <rect height="210.1" width="488.82" x="64.38" y="22.8"/>
  </clipPath>
 </defs>
</svg>
