<?xml version="1.0" encoding="utf-8" standalone="no"?>
<!DOCTYPE svg PUBLIC "-//W3C//DTD SVG 1.1//EN"
  "http://www.w3.org/Graphics/SVG/1.1/DTD/svg11.dtd">
<!-- Created with matplotlib (http://matplotlib.org/) -->
<svg height="288pt" version="1.1" viewBox="0 0 576 288" width="576pt" xmlns="http://www.w3.org/2000/svg" xmlns:xlink="http://www.w3.org/1999/xlink">
 <defs>
  <style type="text/css">
*{stroke-linecap:butt;stroke-linejoin:round;}
  </style>
 </defs>
 <g id="figure_1">
  <g id="patch_1">
   <path d="M 0 288 
L 576 288 
L 576 0 
L 0 0 
z
" style="fill:#ffffff;"/>
  </g>
  <g id="axes_1">
   <g id="patch_2">
    <path d="M 64.38 232.9 
L 553.2 232.9 
L 553.2 22.8 
L 64.38 22.8 
z
" style="fill:#ffffff;"/>
   </g>
   <g id="matplotlib.axis_1">
    <g id="xtick_1">
     <g id="line2d_1">
      <path clip-path="url(#p961d67c0b6)" d="M 156.03375 232.9 
L 156.03375 22.8 
" style="fill:none;opacity:0.5;stroke:#000000;stroke-dasharray:0.5,0.825;stroke-dashoffset:0;stroke-width:0.5;"/>
     </g>
     <g id="line2d_2">
      <defs>
       <path d="M 0 0 
L 0 12 
" id="m0d685832c0" style="stroke:#000000;stroke-width:2;"/>
      </defs>
      <g>
       <use style="stroke:#000000;stroke-width:2;" x="156.03375" xlink:href="#m0d685832c0" y="232.9"/>
      </g>
     </g>
     <g id="text_1">
      <!-- 0 -->
      <defs>
       <path d="M 47.59375 33 
Q 47.59375 26.296875 46.296875 20.34375 
Q 45 14.40625 42.453125 9.40625 
Q 39.90625 4.40625 35.40625 1.5 
Q 30.90625 -1.40625 25 -1.40625 
Q 18.90625 -1.40625 14.296875 1.6875 
Q 9.703125 4.796875 7.203125 10 
Q 4.703125 15.203125 3.546875 21.09375 
Q 2.40625 27 2.40625 33.59375 
Q 2.40625 42.90625 4.703125 50.34375 
Q 7 57.796875 12.34375 62.6875 
Q 17.703125 67.59375 25.40625 67.59375 
Q 35.203125 67.59375 41.390625 58 
Q 47.59375 48.40625 47.59375 33 
z
M 38 32.5 
Q 38 48.296875 34.640625 56.640625 
Q 31.296875 65 24.796875 65 
Q 18.59375 65 15.296875 56.59375 
Q 12 48.203125 12 32.90625 
Q 12 17.5 15.296875 9.34375 
Q 18.59375 1.203125 25 1.203125 
Q 31.296875 1.203125 34.640625 9.34375 
Q 38 17.5 38 32.5 
z
" id="STIXGeneral-Regular-30"/>
      </defs>
      <g transform="translate(148.03375 270.255)scale(0.32 -0.32)">
       <use xlink:href="#STIXGeneral-Regular-30"/>
      </g>
     </g>
    </g>
    <g id="xtick_2">
     <g id="line2d_3">
      <path clip-path="url(#p961d67c0b6)" d="M 308.79 232.9 
L 308.79 22.8 
" style="fill:none;opacity:0.5;stroke:#000000;stroke-dasharray:0.5,0.825;stroke-dashoffset:0;stroke-width:0.5;"/>
     </g>
     <g id="line2d_4">
      <g>
       <use style="stroke:#000000;stroke-width:2;" x="308.79" xlink:href="#m0d685832c0" y="232.9"/>
      </g>
     </g>
     <g id="text_2">
      <!-- 2 -->
      <defs>
       <path d="M 47.40625 13.703125 
L 42 0 
L 2.90625 0 
L 2.90625 1.203125 
L 20.703125 20.09375 
Q 27.703125 27.40625 30.703125 33.5 
Q 33.703125 39.59375 33.703125 46.09375 
Q 33.703125 52.796875 30 56.5 
Q 26.296875 60.203125 19.796875 60.203125 
Q 14.40625 60.203125 11.25 57.390625 
Q 8.09375 54.59375 5.09375 47.203125 
L 3 47.703125 
Q 4.703125 57 9.84375 62.296875 
Q 15 67.59375 23.796875 67.59375 
Q 32.09375 67.59375 37.1875 62.59375 
Q 42.296875 57.59375 42.296875 50 
Q 42.296875 38.703125 29.5 25.203125 
L 13 7.59375 
L 36.40625 7.59375 
Q 39.703125 7.59375 41.640625 8.890625 
Q 43.59375 10.203125 46 14.296875 
z
" id="STIXGeneral-Regular-32"/>
      </defs>
      <g transform="translate(300.79 270.255)scale(0.32 -0.32)">
       <use xlink:href="#STIXGeneral-Regular-32"/>
      </g>
     </g>
    </g>
    <g id="xtick_3">
     <g id="line2d_5">
      <path clip-path="url(#p961d67c0b6)" d="M 461.54625 232.9 
L 461.54625 22.8 
" style="fill:none;opacity:0.5;stroke:#000000;stroke-dasharray:0.5,0.825;stroke-dashoffset:0;stroke-width:0.5;"/>
     </g>
     <g id="line2d_6">
      <g>
       <use style="stroke:#000000;stroke-width:2;" x="461.54625" xlink:href="#m0d685832c0" y="232.9"/>
      </g>
     </g>
     <g id="text_3">
      <!-- 4 -->
      <defs>
       <path d="M 47.296875 16.703125 
L 37 16.703125 
L 37 0 
L 29.203125 0 
L 29.203125 16.703125 
L 1.203125 16.703125 
L 1.203125 23.09375 
L 32.59375 67.59375 
L 37 67.59375 
L 37 23.09375 
L 47.296875 23.09375 
z
M 29.203125 23.09375 
L 29.203125 57.40625 
L 5.203125 23.09375 
z
" id="STIXGeneral-Regular-34"/>
      </defs>
      <g transform="translate(453.54625 270.255)scale(0.32 -0.32)">
       <use xlink:href="#STIXGeneral-Regular-34"/>
      </g>
     </g>
    </g>
    <g id="xtick_4">
     <g id="line2d_7">
      <defs>
       <path d="M 0 0 
L 0 6 
" id="m2620127e9e" style="stroke:#000000;"/>
      </defs>
      <g>
       <use style="stroke:#000000;" x="94.93125" xlink:href="#m2620127e9e" y="232.9"/>
      </g>
     </g>
    </g>
    <g id="xtick_5">
     <g id="line2d_8">
      <g>
       <use style="stroke:#000000;" x="125.4825" xlink:href="#m2620127e9e" y="232.9"/>
      </g>
     </g>
    </g>
    <g id="xtick_6">
     <g id="line2d_9">
      <g>
       <use style="stroke:#000000;" x="186.585" xlink:href="#m2620127e9e" y="232.9"/>
      </g>
     </g>
    </g>
    <g id="xtick_7">
     <g id="line2d_10">
      <g>
       <use style="stroke:#000000;" x="217.13625" xlink:href="#m2620127e9e" y="232.9"/>
      </g>
     </g>
    </g>
    <g id="xtick_8">
     <g id="line2d_11">
      <g>
       <use style="stroke:#000000;" x="247.6875" xlink:href="#m2620127e9e" y="232.9"/>
      </g>
     </g>
    </g>
    <g id="xtick_9">
     <g id="line2d_12">
      <g>
       <use style="stroke:#000000;" x="278.23875" xlink:href="#m2620127e9e" y="232.9"/>
      </g>
     </g>
    </g>
    <g id="xtick_10">
     <g id="line2d_13">
      <g>
       <use style="stroke:#000000;" x="308.79" xlink:href="#m2620127e9e" y="232.9"/>
      </g>
     </g>
    </g>
    <g id="xtick_11">
     <g id="line2d_14">
      <g>
       <use style="stroke:#000000;" x="339.34125" xlink:href="#m2620127e9e" y="232.9"/>
      </g>
     </g>
    </g>
    <g id="xtick_12">
     <g id="line2d_15">
      <g>
       <use style="stroke:#000000;" x="369.8925" xlink:href="#m2620127e9e" y="232.9"/>
      </g>
     </g>
    </g>
    <g id="xtick_13">
     <g id="line2d_16">
      <g>
       <use style="stroke:#000000;" x="400.44375" xlink:href="#m2620127e9e" y="232.9"/>
      </g>
     </g>
    </g>
    <g id="xtick_14">
     <g id="line2d_17">
      <g>
       <use style="stroke:#000000;" x="430.995" xlink:href="#m2620127e9e" y="232.9"/>
      </g>
     </g>
    </g>
    <g id="xtick_15">
     <g id="line2d_18">
      <g>
       <use style="stroke:#000000;" x="461.54625" xlink:href="#m2620127e9e" y="232.9"/>
      </g>
     </g>
    </g>
    <g id="xtick_16">
     <g id="line2d_19">
      <g>
       <use style="stroke:#000000;" x="492.0975" xlink:href="#m2620127e9e" y="232.9"/>
      </g>
     </g>
    </g>
    <g id="xtick_17">
     <g id="line2d_20">
      <g>
       <use style="stroke:#000000;" x="522.64875" xlink:href="#m2620127e9e" y="232.9"/>
      </g>
     </g>
    </g>
   </g>
   <g id="matplotlib.axis_2">
    <g id="ytick_1">
     <g id="line2d_21">
      <path clip-path="url(#p961d67c0b6)" d="M 64.38 223.350008 
L 553.2 223.350008 
" style="fill:none;opacity:0.5;stroke:#000000;stroke-dasharray:0.5,0.825;stroke-dashoffset:0;stroke-width:0.5;"/>
     </g>
     <g id="line2d_22">
      <defs>
       <path d="M 0 0 
L -12 0 
" id="mf9d3a17fc0" style="stroke:#000000;stroke-width:2;"/>
      </defs>
      <g>
       <use style="stroke:#000000;stroke-width:2;" x="64.38" xlink:href="#mf9d3a17fc0" y="223.350008"/>
      </g>
     </g>
     <g id="text_4">
      <!-- $\mathdefault{−1}$ -->
      <defs>
       <path d="M 62.09375 22 
L 6.40625 22 
L 6.40625 28.59375 
L 62.09375 28.59375 
z
" id="STIXGeneral-Regular-2212"/>
       <path d="M 39.40625 0 
L 11.796875 0 
L 11.796875 1.5 
Q 17.296875 1.796875 19.296875 3.546875 
Q 21.296875 5.296875 21.296875 9.5 
L 21.296875 54.40625 
Q 21.296875 59.296875 18.296875 59.296875 
Q 16.90625 59.296875 13.796875 58.09375 
L 11.09375 57.09375 
L 11.09375 58.5 
L 29 67.59375 
L 29.90625 67.296875 
L 29.90625 7.59375 
Q 29.90625 4.296875 31.90625 2.890625 
Q 33.90625 1.5 39.40625 1.5 
z
" id="STIXGeneral-Regular-31"/>
      </defs>
      <g transform="translate(10.8 234.277508)scale(0.32 -0.32)">
       <use transform="translate(0 0.40625)" xlink:href="#STIXGeneral-Regular-2212"/>
       <use transform="translate(68.499985 0.40625)" xlink:href="#STIXGeneral-Regular-31"/>
      </g>
     </g>
    </g>
    <g id="ytick_2">
     <g id="line2d_23">
      <path clip-path="url(#p961d67c0b6)" d="M 64.38 127.850004 
L 553.2 127.850004 
" style="fill:none;opacity:0.5;stroke:#000000;stroke-dasharray:0.5,0.825;stroke-dashoffset:0;stroke-width:0.5;"/>
     </g>
     <g id="line2d_24">
      <g>
       <use style="stroke:#000000;stroke-width:2;" x="64.38" xlink:href="#mf9d3a17fc0" y="127.850004"/>
      </g>
     </g>
     <g id="text_5">
      <!-- $\mathdefault{0}$ -->
      <g transform="translate(32.88 138.777504)scale(0.32 -0.32)">
       <use transform="translate(0 0.40625)" xlink:href="#STIXGeneral-Regular-30"/>
      </g>
     </g>
    </g>
    <g id="ytick_3">
     <g id="line2d_25">
      <path clip-path="url(#p961d67c0b6)" d="M 64.38 32.35 
L 553.2 32.35 
" style="fill:none;opacity:0.5;stroke:#000000;stroke-dasharray:0.5,0.825;stroke-dashoffset:0;stroke-width:0.5;"/>
     </g>
     <g id="line2d_26">
      <g>
       <use style="stroke:#000000;stroke-width:2;" x="64.38" xlink:href="#mf9d3a17fc0" y="32.35"/>
      </g>
     </g>
     <g id="text_6">
      <!-- $\mathdefault{1}$ -->
      <g transform="translate(32.88 43.2775)scale(0.32 -0.32)">
       <use transform="translate(0 0.40625)" xlink:href="#STIXGeneral-Regular-31"/>
      </g>
     </g>
    </g>
    <g id="ytick_4">
     <g id="line2d_27">
      <defs>
       <path d="M 0 0 
L -6 0 
" id="m0a4ceeb3ed" style="stroke:#000000;"/>
      </defs>
      <g>
       <use style="stroke:#000000;" x="64.38" xlink:href="#m0a4ceeb3ed" y="204.250007"/>
      </g>
     </g>
    </g>
    <g id="ytick_5">
     <g id="line2d_28">
      <g>
       <use style="stroke:#000000;" x="64.38" xlink:href="#m0a4ceeb3ed" y="185.150006"/>
      </g>
     </g>
    </g>
    <g id="ytick_6">
     <g id="line2d_29">
      <g>
       <use style="stroke:#000000;" x="64.38" xlink:href="#m0a4ceeb3ed" y="166.050005"/>
      </g>
     </g>
    </g>
    <g id="ytick_7">
     <g id="line2d_30">
      <g>
       <use style="stroke:#000000;" x="64.38" xlink:href="#m0a4ceeb3ed" y="146.950005"/>
      </g>
     </g>
    </g>
    <g id="ytick_8">
     <g id="line2d_31">
      <g>
       <use style="stroke:#000000;" x="64.38" xlink:href="#m0a4ceeb3ed" y="127.850004"/>
      </g>
     </g>
    </g>
    <g id="ytick_9">
     <g id="line2d_32">
      <g>
       <use style="stroke:#000000;" x="64.38" xlink:href="#m0a4ceeb3ed" y="108.750003"/>
      </g>
     </g>
    </g>
    <g id="ytick_10">
     <g id="line2d_33">
      <g>
       <use style="stroke:#000000;" x="64.38" xlink:href="#m0a4ceeb3ed" y="89.650002"/>
      </g>
     </g>
    </g>
    <g id="ytick_11">
     <g id="line2d_34">
      <g>
       <use style="stroke:#000000;" x="64.38" xlink:href="#m0a4ceeb3ed" y="70.550001"/>
      </g>
     </g>
    </g>
    <g id="ytick_12">
     <g id="line2d_35">
      <g>
       <use style="stroke:#000000;" x="64.38" xlink:href="#m0a4ceeb3ed" y="51.45"/>
      </g>
     </g>
    </g>
    <g id="ytick_13">
     <g id="line2d_36">
      <g>
       <use style="stroke:#000000;" x="64.38" xlink:href="#m0a4ceeb3ed" y="32.35"/>
      </g>
     </g>
    </g>
   </g>
   <g id="line2d_37">
    <path clip-path="url(#p961d67c0b6)" d="M 156.03375 232.9 
L 156.03375 22.8 
" style="fill:none;stroke:#000000;stroke-linecap:square;stroke-width:3.5;"/>
   </g>
   <g id="line2d_38">
    <path clip-path="url(#p961d67c0b6)" d="M 64.38 127.850004 
L 553.2 127.850004 
" style="fill:none;stroke:#000000;stroke-linecap:square;stroke-width:3.5;"/>
   </g>
   <g id="line2d_39">
    <path clip-path="url(#p961d67c0b6)" d="M 438.632812 232.9 
L 438.632812 22.8 
" style="fill:none;stroke:#000000;stroke-dasharray:12.95,5.6;stroke-dashoffset:0;stroke-width:3.5;"/>
   </g>
   <g id="line2d_40">
    <path clip-path="url(#p961d67c0b6)" d="M 156.03375 127.850004 
L 163.438586 99.210589 
L 167.338843 85.025435 
L 170.560795 74.121664 
L 173.358805 65.410637 
L 175.874188 58.281579 
L 178.16347 52.438221 
L 180.283175 47.622409 
L 182.233303 43.729373 
L 184.042118 40.601528 
L 185.709619 38.145327 
L 187.264069 36.235346 
L 188.733732 34.773755 
L 190.090343 33.726285 
L 191.390428 32.997363 
L 192.633989 32.55386 
L 193.821023 32.363041 
L 195.008058 32.399809 
L 196.195093 32.664075 
L 197.41039 33.169661 
L 198.653951 33.931842 
L 199.954036 34.9913 
L 201.33891 36.411777 
L 202.808572 38.243514 
L 204.391285 40.582018 
L 206.087049 43.497535 
L 207.895864 47.059185 
L 209.845993 51.399211 
L 211.965698 56.673245 
L 214.283242 63.056761 
L 216.826888 70.737954 
L 219.653161 80.001292 
L 222.903375 91.444466 
L 226.860158 106.231252 
L 233.049696 130.355152 
L 239.861015 156.655391 
L 243.761272 170.830053 
L 246.954961 181.630425 
L 249.752971 190.337035 
L 252.268354 197.461581 
L 254.557636 203.300431 
L 256.677341 208.111763 
L 258.627469 212.000446 
L 260.436284 215.124082 
L 262.103785 217.576277 
L 263.658235 219.482432 
L 265.127898 220.940338 
L 266.484509 221.984361 
L 267.784594 222.709948 
L 269.028155 223.150242 
L 270.215189 223.337987 
L 271.402224 223.298143 
L 272.589259 223.030805 
L 273.804556 222.522088 
L 275.048117 221.756724 
L 276.376465 220.667907 
L 277.761339 219.237864 
L 279.231001 217.396156 
L 280.813714 215.047161 
L 282.509478 212.120737 
L 284.346556 208.488469 
L 286.324947 204.06278 
L 288.444652 198.762084 
L 290.762196 192.351725 
L 293.305842 184.644125 
L 296.160378 175.259195 
L 299.438855 163.68335 
L 303.452163 148.649594 
L 309.952591 123.284951 
L 316.368232 98.561554 
L 320.240226 84.516635 
L 323.433915 73.742752 
L 326.231925 65.063995 
L 328.747308 57.967877 
L 331.03659 52.157423 
L 333.128032 47.434132 
L 335.078161 43.565158 
L 336.886975 40.460579 
L 338.554477 38.02652 
L 340.108927 36.137685 
L 341.550326 34.720977 
L 342.906937 33.686478 
L 344.207023 32.970102 
L 345.450583 32.538673 
L 346.637618 32.359418 
L 347.824653 32.407757 
L 349.011688 32.683577 
L 350.226985 33.200943 
L 351.470545 33.975096 
L 352.798894 35.073209 
L 354.183768 36.512813 
L 355.681693 38.403324 
L 357.264406 40.769486 
L 358.96017 43.713753 
L 360.797247 47.364611 
L 362.775638 51.809339 
L 364.923606 57.203823 
L 367.24115 63.640914 
L 369.813059 71.464353 
L 372.667595 80.88167 
L 375.974334 92.59035 
L 380.044168 107.871186 
L 386.912012 134.694321 
L 392.931974 157.831584 
L 396.747443 171.634639 
L 399.912869 182.283156 
L 402.682617 190.850518 
L 405.169737 197.850629 
L 407.459019 203.648574 
L 409.550461 208.359614 
L 411.500589 212.216537 
L 413.281141 215.264822 
L 414.948643 217.694868 
L 416.503093 219.579873 
L 417.944492 220.992964 
L 419.301103 222.024014 
L 420.601189 222.737054 
L 421.816487 223.158306 
L 423.003521 223.339903 
L 424.190556 223.293907 
L 425.377591 223.020428 
L 426.592888 222.505448 
L 427.836449 221.733719 
L 429.164797 220.63817 
L 430.549671 219.201203 
L 432.047596 217.313493 
L 433.630309 214.95022 
L 435.326073 212.008957 
L 437.16315 208.361227 
L 438.632812 205.11113 
L 438.632812 205.11113 
" style="fill:none;stroke:#1b9e77;stroke-linecap:square;stroke-width:3.5;"/>
   </g>
   <g id="line2d_41">
    <path clip-path="url(#p961d67c0b6)" d="M 438.632812 127.850004 
L 446.037648 99.210589 
L 449.937906 85.025435 
L 453.159857 74.121664 
L 455.957868 65.410637 
L 458.473251 58.281579 
L 460.762532 52.438221 
L 462.882237 47.622409 
L 464.832366 43.729373 
L 466.64118 40.601528 
L 468.308682 38.145327 
L 469.863132 36.235346 
L 471.332794 34.773755 
L 472.689405 33.726285 
L 473.989491 32.997363 
L 475.233051 32.55386 
L 476.420086 32.363041 
L 477.607121 32.399809 
L 478.794155 32.664075 
L 480.009453 33.169661 
L 481.253013 33.931842 
L 482.553099 34.9913 
L 483.937973 36.411777 
L 485.407635 38.243514 
L 486.990348 40.582018 
L 488.686112 43.497535 
L 490.494927 47.059185 
L 492.445055 51.399211 
L 494.56476 56.673245 
L 496.882304 63.056761 
L 499.42595 70.737954 
L 502.252223 80.001292 
L 505.502438 91.444466 
L 509.45922 106.231252 
L 515.648759 130.355152 
L 522.460077 156.655391 
L 526.360334 170.830053 
L 529.554023 181.630425 
L 532.352034 190.337035 
L 534.867417 197.461581 
L 537.156698 203.300431 
L 539.276403 208.111763 
L 541.226532 212.000446 
L 543.035346 215.124082 
L 544.702848 217.576277 
L 546.257298 219.482432 
L 547.72696 220.940338 
L 549.083571 221.984361 
L 550.383657 222.709948 
L 551.627217 223.150242 
L 552.814252 223.337987 
L 553.20993 223.35 
L 553.20993 223.35 
" style="fill:none;stroke:#d95f02;stroke-linecap:square;stroke-width:3.5;"/>
   </g>
   <g id="line2d_42">
    <path clip-path="url(#p961d67c0b6)" d="M 64.377708 32.35 
L 65.564743 32.463369 
L 66.751778 32.804086 
L 67.967075 33.387595 
L 69.238898 34.250924 
L 70.567247 35.425988 
L 71.980383 36.978777 
L 73.478308 38.959703 
L 75.089284 41.466376 
L 76.813311 44.568633 
L 78.678651 48.396134 
L 80.685305 53.034867 
L 82.861535 58.640292 
L 85.235605 65.385667 
L 87.864039 73.545125 
L 90.803363 83.416015 
L 94.223154 95.706422 
L 98.575615 112.233725 
L 112.59393 166.122378 
L 115.985458 177.916725 
L 118.924782 187.359428 
L 121.524954 194.992522 
L 123.899023 201.293825 
L 126.075254 206.456634 
L 128.081908 210.660252 
L 129.947248 214.06272 
L 131.671275 216.756748 
L 133.28225 218.870458 
L 134.780175 220.477571 
L 136.165049 221.650785 
L 137.493397 222.49025 
L 138.736958 223.020178 
L 139.952255 223.297548 
L 141.13929 223.338271 
L 142.326325 223.151404 
L 143.513359 222.737393 
L 144.75692 222.061123 
L 146.057005 221.090658 
L 147.413617 219.793846 
L 148.855016 218.102492 
L 150.409466 215.923246 
L 152.076967 213.185639 
L 153.85752 209.819773 
L 155.779385 205.69419 
L 156.03375 205.11113 
L 156.03375 205.11113 
" style="fill:none;stroke:#d95f02;stroke-linecap:square;stroke-width:3.5;"/>
   </g>
   <g id="patch_3">
    <path d="M 64.38 232.9 
L 64.38 22.8 
" style="fill:none;stroke:#000000;stroke-linecap:square;stroke-linejoin:miter;stroke-width:0.8;"/>
   </g>
   <g id="patch_4">
    <path d="M 553.2 232.9 
L 553.2 22.8 
" style="fill:none;stroke:#000000;stroke-linecap:square;stroke-linejoin:miter;stroke-width:0.8;"/>
   </g>
   <g id="patch_5">
    <path d="M 64.38 232.9 
L 553.2 232.9 
" style="fill:none;stroke:#000000;stroke-linecap:square;stroke-linejoin:miter;stroke-width:0.8;"/>
   </g>
   <g id="patch_6">
    <path d="M 64.38 22.8 
L 553.2 22.8 
" style="fill:none;stroke:#000000;stroke-linecap:square;stroke-linejoin:miter;stroke-width:0.8;"/>
   </g>
   <g id="patch_7">
    <path d="M 229.597143 -3.994343 
Q 214.147376 11.802988 198.697609 27.60032 
L 201.55732 30.397113 
Q 195.217059 32.589379 188.876797 34.781645 
Q 190.927492 28.394189 192.978187 22.006733 
L 195.837898 24.803526 
Q 211.287665 9.006195 226.737432 -6.791136 
L 229.597143 -3.994343 
z
" style="stroke:#000000;stroke-linecap:round;"/>
   </g>
   <g id="text_7">
    <!-- Observed Signal -->
    <defs>
     <path d="M 68.796875 33.09375 
Q 68.796875 17.703125 59.6875 8.140625 
Q 50.59375 -1.40625 36.09375 -1.40625 
Q 21.5 -1.40625 12.453125 8.1875 
Q 3.40625 17.796875 3.40625 33.40625 
Q 3.40625 48.59375 12.453125 58.09375 
Q 21.5 67.59375 36.09375 67.59375 
Q 50.703125 67.59375 59.75 57.84375 
Q 68.796875 48.09375 68.796875 33.09375 
z
M 57.40625 33.703125 
Q 57.40625 42.203125 55 48.953125 
Q 52.59375 55.703125 48.296875 59.296875 
Q 42.703125 64 36 64 
Q 27.5 64 21.703125 57.296875 
Q 18.5 53.703125 16.640625 47.046875 
Q 14.796875 40.40625 14.796875 33.203125 
Q 14.796875 15 23.796875 6.703125 
Q 28.703125 2.203125 36.203125 2.203125 
Q 44 2.203125 49.09375 7 
Q 57.40625 15 57.40625 33.703125 
z
" id="STIXGeneral-Regular-4f"/>
     <path d="M 15.296875 68.09375 
L 15.296875 37.59375 
Q 16.90625 41.40625 20.546875 43.703125 
Q 24.203125 46 28.796875 46 
Q 36.703125 46 41.75 39.703125 
Q 46.796875 33.40625 46.796875 24 
Q 46.796875 13 40.09375 6 
Q 33.40625 -1 23.40625 -1 
Q 17.296875 -1 12.09375 1.046875 
Q 6.90625 3.09375 6.90625 5.59375 
L 6.90625 56.59375 
Q 6.90625 60.296875 6 61.34375 
Q 5.09375 62.40625 2 62.40625 
Q 1.296875 62.40625 0.296875 62.203125 
L 0.296875 63.90625 
L 3.296875 64.796875 
Q 13.5 67.90625 14.796875 68.296875 
z
M 15.296875 31.796875 
L 15.296875 7.40625 
Q 15.296875 5.09375 18.140625 3.640625 
Q 21 2.203125 25 2.203125 
Q 30.90625 2.203125 34.296875 6.5 
Q 38 11.09375 38 19.703125 
Q 38 29.5 34.09375 35 
Q 30.796875 39.703125 25.203125 39.703125 
Q 21.203125 39.703125 18.25 37.34375 
Q 15.296875 35 15.296875 31.796875 
z
" id="STIXGeneral-Regular-62"/>
     <path d="M 15.59375 30.09375 
L 26 23.796875 
Q 31 20.796875 32.890625 18.1875 
Q 34.796875 15.59375 34.796875 11.5 
Q 34.796875 6.5 30.640625 2.75 
Q 26.5 -1 20.796875 -1 
Q 16.09375 -1 13.5 -0.09375 
Q 10.796875 0.796875 8.90625 0.796875 
Q 7.203125 0.796875 6.5 -0.40625 
L 5.203125 -0.40625 
L 5.203125 15.296875 
L 6.796875 15.296875 
Q 8.40625 8 11.40625 4.59375 
Q 14.40625 1.203125 19.5 1.203125 
Q 23.203125 1.203125 25.5 3.296875 
Q 27.796875 5.40625 27.796875 8.59375 
Q 27.796875 13.203125 22.5 16.09375 
L 17.09375 19.09375 
Q 5.09375 25.796875 5.09375 33.59375 
Q 5.09375 39.40625 8.84375 42.65625 
Q 12.59375 45.90625 18.90625 45.90625 
Q 23.296875 45.90625 25.59375 44.796875 
Q 27.40625 44 28.40625 44 
Q 29.09375 44 30 45 
L 31.09375 45 
L 31.59375 31.40625 
L 30.09375 31.40625 
Q 28.40625 38.203125 25.84375 40.953125 
Q 23.296875 43.703125 18.796875 43.703125 
Q 15.40625 43.703125 13.34375 42 
Q 11.296875 40.296875 11.296875 36.90625 
Q 11.296875 35.203125 12.4375 33.25 
Q 13.59375 31.296875 15.59375 30.09375 
z
" id="STIXGeneral-Regular-73"/>
     <path d="M 40.796875 16.40625 
L 42.40625 15.703125 
Q 36.40625 -1 21.5 -1 
Q 12.703125 -1 7.59375 5.140625 
Q 2.5 11.296875 2.5 21.703125 
Q 2.5 32.40625 8.203125 39.203125 
Q 13.90625 46 23.203125 46 
Q 32.203125 46 37.09375 39.09375 
Q 40 35.09375 40.5 27.703125 
L 9.703125 27.703125 
Q 10.09375 21.40625 10.9375 18.09375 
Q 11.796875 14.796875 14.296875 11.40625 
Q 18.5 5.90625 25.40625 5.90625 
Q 30.296875 5.90625 33.640625 8.296875 
Q 37 10.703125 40.796875 16.40625 
z
M 9.90625 30.90625 
L 30.296875 30.90625 
Q 29.40625 37.203125 27.34375 39.796875 
Q 25.296875 42.40625 20.5 42.40625 
Q 16.296875 42.40625 13.5 39.453125 
Q 10.703125 36.5 9.90625 30.90625 
z
" id="STIXGeneral-Regular-65"/>
     <path d="M 16 45.796875 
L 16 36.59375 
Q 19.796875 42 22.34375 44 
Q 24.90625 46 28 46 
Q 30.59375 46 32.046875 44.59375 
Q 33.5 43.203125 33.5 40.703125 
Q 33.5 38.59375 32.453125 37.390625 
Q 31.40625 36.203125 29.59375 36.203125 
Q 27.703125 36.203125 25.59375 38.203125 
Q 24 39.703125 23 39.703125 
Q 20.90625 39.703125 18.453125 36.796875 
Q 16 33.90625 16 31.5 
L 16 9 
Q 16 4.703125 17.703125 3.203125 
Q 19.40625 1.703125 24.5 1.5 
L 24.5 0 
L 0.5 0 
L 0.5 1.5 
Q 5.296875 2.40625 6.4375 3.5 
Q 7.59375 4.59375 7.59375 8.40625 
L 7.59375 33.40625 
Q 7.59375 36.703125 6.84375 38.046875 
Q 6.09375 39.40625 4.203125 39.40625 
Q 2.59375 39.40625 0.703125 39 
L 0.703125 40.59375 
Q 7 42.59375 15.5 46 
z
" id="STIXGeneral-Regular-72"/>
     <path d="M 47.703125 45 
L 47.703125 43.5 
Q 45.40625 43.296875 44.296875 42 
Q 43.203125 40.703125 41.203125 35.703125 
L 28.40625 3.59375 
Q 26.40625 -1.40625 25.59375 -1.40625 
Q 24.796875 -1.40625 23.796875 1.203125 
Q 23.59375 1.5 23.390625 2.203125 
Q 23.203125 2.90625 23 3.296875 
L 11 32 
Q 7.796875 39.59375 6.296875 41.4375 
Q 4.796875 43.296875 1.90625 43.5 
L 1.90625 45 
L 21.5 45 
L 21.5 43.5 
Q 18.90625 43.296875 17.90625 42.6875 
Q 16.90625 42.09375 16.90625 40.796875 
Q 16.90625 39.203125 17.796875 37 
L 28 11.40625 
L 37.90625 37.296875 
Q 38.5 38.796875 38.5 40.296875 
Q 38.5 43.09375 33.796875 43.5 
L 33.796875 45 
z
" id="STIXGeneral-Regular-76"/>
     <path d="M 49.09375 4.203125 
L 34.40625 -1 
L 34 -0.703125 
L 34 5.703125 
Q 29.203125 -1 21.203125 -1 
Q 12.90625 -1 7.796875 4.953125 
Q 2.703125 10.90625 2.703125 20.5 
Q 2.703125 31.09375 8.796875 38.546875 
Q 14.90625 46 23.5 46 
Q 28.90625 46 34 41.703125 
L 34 57.296875 
Q 34 60.40625 33.09375 61.40625 
Q 32.203125 62.40625 29.40625 62.40625 
Q 28 62.40625 27.203125 62.296875 
L 27.203125 63.90625 
Q 36.296875 66.296875 41.90625 68.296875 
L 42.40625 68.09375 
L 42.40625 11.40625 
Q 42.40625 7.90625 43.25 6.796875 
Q 44.09375 5.703125 46.796875 5.703125 
Q 47.40625 5.703125 49.09375 5.796875 
z
M 34 10.203125 
L 34 33.203125 
Q 34 37.203125 30.953125 40.203125 
Q 27.90625 43.203125 23.796875 43.203125 
Q 18.09375 43.203125 14.6875 38.09375 
Q 11.296875 33 11.296875 24.5 
Q 11.296875 15.296875 15.046875 9.75 
Q 18.796875 4.203125 25.09375 4.203125 
Q 29.796875 4.203125 32.5 7.40625 
Q 34 9.09375 34 10.203125 
z
" id="STIXGeneral-Regular-64"/>
     <path id="STIXGeneral-Regular-20"/>
     <path d="M 46.90625 46.296875 
L 44.40625 46.296875 
Q 42.703125 52.5 40.296875 55.703125 
Q 34.203125 63.5 25.796875 63.5 
Q 21.203125 63.5 18.453125 60.84375 
Q 15.703125 58.203125 15.703125 54 
Q 15.703125 52 16.703125 50.09375 
Q 17.703125 48.203125 18.84375 46.84375 
Q 20 45.5 22.890625 43.5 
Q 25.796875 41.5 27.59375 40.453125 
Q 29.40625 39.40625 33.59375 36.90625 
Q 41.703125 32.203125 45.390625 27.546875 
Q 49.09375 22.90625 49.09375 17.296875 
Q 49.09375 9 43.296875 3.796875 
Q 37.5 -1.40625 28.703125 -1.40625 
Q 22.203125 -1.40625 16.90625 0.90625 
Q 14.296875 2 12.203125 2 
Q 11 2 10.203125 1.09375 
Q 9.40625 0.203125 9.40625 -1.296875 
L 7.203125 -1.296875 
L 4.296875 19.90625 
L 6.5 19.90625 
Q 13.203125 2.203125 27.09375 2.203125 
Q 32.40625 2.203125 35.703125 5.34375 
Q 39 8.5 39 13.40625 
Q 39 18.09375 36.09375 21.296875 
Q 31.296875 26.5 19.296875 32.90625 
Q 7.09375 39.40625 7.09375 50.09375 
Q 7.09375 58.09375 12 62.84375 
Q 16.90625 67.59375 24.5 67.59375 
Q 29.796875 67.59375 35 65.40625 
Q 37.703125 64.203125 39.40625 64.203125 
Q 42 64.203125 42.59375 67.59375 
L 44.703125 67.59375 
z
" id="STIXGeneral-Regular-53"/>
     <path d="M 18 63.203125 
Q 18 61 16.5 59.546875 
Q 15 58.09375 12.796875 58.09375 
Q 10.703125 58.09375 9.25 59.546875 
Q 7.796875 61 7.796875 63.203125 
Q 7.796875 65.296875 9.296875 66.796875 
Q 10.796875 68.296875 12.90625 68.296875 
Q 15.09375 68.296875 16.546875 66.796875 
Q 18 65.296875 18 63.203125 
z
M 25.296875 0 
L 1.59375 0 
L 1.59375 1.5 
Q 6.796875 1.796875 8.140625 3.296875 
Q 9.5 4.796875 9.5 10.40625 
L 9.5 33.09375 
Q 9.5 36.59375 8.796875 38 
Q 8.09375 39.40625 6.203125 39.40625 
Q 3.796875 39.40625 2 38.90625 
L 2 40.5 
L 17.5 46 
L 17.90625 45.59375 
L 17.90625 10.5 
Q 17.90625 4.90625 19.15625 3.40625 
Q 20.40625 1.90625 25.296875 1.5 
z
" id="STIXGeneral-Regular-69"/>
     <path d="M 47 38.796875 
L 38.703125 38.796875 
Q 40.59375 34.5 40.59375 30.40625 
Q 40.59375 22.703125 35.390625 18.796875 
Q 30.203125 14.90625 25 14.90625 
Q 23.90625 14.90625 21.203125 15.203125 
L 19.296875 15.40625 
Q 17.296875 14.796875 15.296875 12.6875 
Q 13.296875 10.59375 13.296875 9.09375 
Q 13.296875 6.796875 21.09375 6.40625 
L 34 5.796875 
Q 39.5 5.59375 42.796875 2.6875 
Q 46.09375 -0.203125 46.09375 -4.90625 
Q 46.09375 -10.703125 40.09375 -15.40625 
Q 31.796875 -21.796875 20.09375 -21.796875 
Q 12.90625 -21.796875 7.84375 -18.9375 
Q 2.796875 -16.09375 2.796875 -12.09375 
Q 2.796875 -9.296875 5 -6.546875 
Q 7.203125 -3.796875 12.59375 0.09375 
Q 9.40625 1.59375 8.34375 2.6875 
Q 7.296875 3.796875 7.296875 5.40625 
Q 7.296875 8.296875 11.90625 12.296875 
Q 14.203125 14.296875 16.203125 16.296875 
Q 11.203125 18.796875 9.046875 21.890625 
Q 6.90625 25 6.90625 29.703125 
Q 6.90625 36.5 11.75 41.25 
Q 16.59375 46 23.59375 46 
Q 27.59375 46 31.59375 44.5 
L 33.796875 43.703125 
Q 36.703125 42.703125 39.296875 42.703125 
L 47 42.703125 
z
M 15.203125 33.796875 
L 15.203125 33.5 
Q 15.203125 26.296875 18.046875 21.84375 
Q 20.90625 17.40625 25.5 17.40625 
Q 28.90625 17.40625 30.90625 19.84375 
Q 32.90625 22.296875 32.90625 26.40625 
Q 32.90625 33 29.90625 38.5 
Q 27.40625 43.203125 22.59375 43.203125 
Q 19.09375 43.203125 17.140625 40.703125 
Q 15.203125 38.203125 15.203125 33.796875 
z
M 43.296875 -6.40625 
Q 43.296875 -3.59375 40.546875 -2.546875 
Q 37.796875 -1.5 30.90625 -1.5 
Q 21 -1.5 14.703125 -0.203125 
Q 11.703125 -3.796875 10.75 -5.4375 
Q 9.796875 -7.09375 9.796875 -8.796875 
Q 9.796875 -12.09375 13.75 -14.09375 
Q 17.703125 -16.09375 24.296875 -16.09375 
Q 32.796875 -16.09375 38.046875 -13.4375 
Q 43.296875 -10.796875 43.296875 -6.40625 
z
" id="STIXGeneral-Regular-67"/>
     <path d="M 48.5 0 
L 27.703125 0 
L 27.796875 1.5 
Q 31.5 1.796875 32.75 3.640625 
Q 34 5.5 34 10.5 
L 34 30.40625 
Q 34 40.5 26.703125 40.5 
Q 24.203125 40.5 22 39.296875 
Q 19.796875 38.09375 16.40625 34.796875 
L 16.40625 7.203125 
Q 16.40625 4.203125 17.75 3 
Q 19.09375 1.796875 22.90625 1.5 
L 22.90625 0 
L 1.796875 0 
L 1.796875 1.5 
Q 5.59375 1.796875 6.796875 3.34375 
Q 8 4.90625 8 9.40625 
L 8 33.703125 
Q 8 37.40625 7.296875 38.796875 
Q 6.59375 40.203125 4.5 40.203125 
Q 2.5 40.203125 1.59375 39.796875 
L 1.59375 41.5 
Q 8.59375 43.5 15.296875 46 
L 16.09375 45.703125 
L 16.09375 37.90625 
L 16.203125 37.90625 
Q 23.296875 46 30.59375 46 
Q 36.296875 46 39.34375 42 
Q 42.40625 38 42.40625 30.59375 
L 42.40625 8.5 
Q 42.40625 4.5 43.59375 3.203125 
Q 44.796875 1.90625 48.5 1.5 
z
" id="STIXGeneral-Regular-6e"/>
     <path d="M 44.203125 6.59375 
L 44.203125 3.796875 
Q 40.40625 -1 35.203125 -1 
Q 29.5 -1 28.796875 6.296875 
L 28.703125 6.296875 
Q 22.296875 -1 14.203125 -1 
Q 9.5 -1 6.59375 1.75 
Q 3.703125 4.5 3.703125 9.40625 
Q 3.703125 16.40625 10.703125 21.09375 
Q 15.5 24.296875 28.703125 29.203125 
L 28.703125 34.59375 
Q 28.703125 39.09375 26.546875 41.34375 
Q 24.40625 43.59375 20.90625 43.59375 
Q 17.90625 43.59375 15.90625 42.140625 
Q 13.90625 40.703125 13.90625 38.703125 
Q 13.90625 37.796875 14.203125 36.6875 
Q 14.5 35.59375 14.5 34.5 
Q 14.5 33 13.140625 31.703125 
Q 11.796875 30.40625 9.90625 30.40625 
Q 8.203125 30.40625 6.890625 31.703125 
Q 5.59375 33 5.59375 35 
Q 5.59375 39.796875 10.703125 43 
Q 15.40625 46 22.203125 46 
Q 30.296875 46 34 41.5 
Q 35.796875 39.40625 36.296875 37.25 
Q 36.796875 35.09375 36.796875 30.40625 
L 36.796875 11.296875 
Q 36.796875 4.703125 39.90625 4.703125 
Q 41.90625 4.703125 44.203125 6.59375 
z
M 28.703125 12.703125 
L 28.703125 26.796875 
Q 19.5 23.59375 15.90625 20.203125 
Q 12.5 17.09375 12.5 12.5 
Q 12.5 8.703125 14.390625 6.75 
Q 16.296875 4.796875 19.40625 4.796875 
Q 22.703125 4.796875 25.203125 6.40625 
Q 27.296875 7.90625 28 9.203125 
Q 28.703125 10.5 28.703125 12.703125 
z
" id="STIXGeneral-Regular-61"/>
     <path d="M 25.703125 0 
L 2.09375 0 
L 2.09375 1.5 
Q 6.796875 1.90625 8.296875 3.453125 
Q 9.796875 5 9.796875 9.203125 
L 9.796875 56.09375 
Q 9.796875 59.703125 8.890625 61.09375 
Q 8 62.5 5.59375 62.5 
Q 3.5 62.5 1.90625 62.296875 
L 1.90625 63.90625 
Q 11.40625 66.203125 17.703125 68.296875 
L 18.203125 67.90625 
L 18.203125 8.703125 
Q 18.203125 4.5 19.59375 3.140625 
Q 21 1.796875 25.703125 1.5 
z
" id="STIXGeneral-Regular-6c"/>
    </defs>
    <g style="fill:#1b9e77;" transform="translate(232.411875 -15.400003)scale(0.26 -0.26)">
     <use xlink:href="#STIXGeneral-Regular-4f"/>
     <use x="72.199982" xlink:href="#STIXGeneral-Regular-62"/>
     <use x="122.199966" xlink:href="#STIXGeneral-Regular-73"/>
     <use x="161.09996" xlink:href="#STIXGeneral-Regular-65"/>
     <use x="205.499954" xlink:href="#STIXGeneral-Regular-72"/>
     <use x="238.799942" xlink:href="#STIXGeneral-Regular-76"/>
     <use x="288.799927" xlink:href="#STIXGeneral-Regular-65"/>
     <use x="333.199921" xlink:href="#STIXGeneral-Regular-64"/>
     <use x="383.199905" xlink:href="#STIXGeneral-Regular-20"/>
     <use x="408.19989" xlink:href="#STIXGeneral-Regular-53"/>
     <use x="463.799881" xlink:href="#STIXGeneral-Regular-69"/>
     <use x="491.599869" xlink:href="#STIXGeneral-Regular-67"/>
     <use x="541.599854" xlink:href="#STIXGeneral-Regular-6e"/>
     <use x="591.599838" xlink:href="#STIXGeneral-Regular-61"/>
     <use x="635.999832" xlink:href="#STIXGeneral-Regular-6c"/>
    </g>
   </g>
   <g id="patch_8">
    <path d="M 491.772077 -4.536645 
Q 484.584368 10.169814 477.396659 24.876273 
L 480.990401 26.632696 
Q 475.660181 30.706561 470.329961 34.780426 
Q 470.269569 28.071926 470.209176 21.363426 
L 473.802918 23.11985 
Q 480.990627 8.413391 488.178336 -6.293069 
L 491.772077 -4.536645 
z
" style="stroke:#000000;stroke-linecap:round;"/>
   </g>
   <g id="text_8">
    <!-- Periodic Extension -->
    <defs>
     <path d="M 1.59375 66.203125 
L 27.5 66.203125 
Q 41.703125 66.203125 49.203125 59.90625 
Q 54.203125 55.703125 54.203125 48 
Q 54.203125 40 48.5 34.90625 
Q 44.296875 31.09375 39.890625 29.9375 
Q 35.5 28.796875 27.09375 28.796875 
Q 24.203125 28.796875 20.203125 29.09375 
L 20.203125 11.203125 
Q 20.203125 5.5 21.84375 3.84375 
Q 23.5 2.203125 29.59375 1.90625 
L 29.59375 0 
L 1.59375 0 
L 1.59375 1.90625 
Q 7.40625 2.296875 8.703125 4 
Q 10 5.703125 10 12.203125 
L 10 55.09375 
Q 10 60.703125 8.546875 62.296875 
Q 7.09375 63.90625 1.59375 64.296875 
z
M 20.203125 58.90625 
L 20.203125 33.09375 
Q 23.59375 32.796875 26.296875 32.796875 
Q 34.40625 32.796875 38.84375 36.75 
Q 43.296875 40.703125 43.296875 47.5 
Q 43.296875 55.59375 38.6875 59.046875 
Q 34.09375 62.5 23.703125 62.5 
Q 21.59375 62.5 20.890625 61.75 
Q 20.203125 61 20.203125 58.90625 
z
" id="STIXGeneral-Regular-50"/>
     <path d="M 47 23.09375 
Q 47 12.59375 40.75 5.796875 
Q 34.5 -1 24.5 -1 
Q 15.296875 -1 9.09375 5.75 
Q 2.90625 12.5 2.90625 22.796875 
Q 2.90625 33.203125 9.09375 39.59375 
Q 15.296875 46 25.40625 46 
Q 34.703125 46 40.84375 39.640625 
Q 47 33.296875 47 23.09375 
z
M 38 20.40625 
Q 38 31.796875 33 38.203125 
Q 29 43.203125 23.5 43.203125 
Q 18.296875 43.203125 15.09375 38.953125 
Q 11.90625 34.703125 11.90625 27.296875 
Q 11.90625 14.5 17.203125 6.796875 
Q 20.59375 1.796875 26.203125 1.796875 
Q 31.703125 1.796875 34.84375 6.75 
Q 38 11.703125 38 20.40625 
z
" id="STIXGeneral-Regular-6f"/>
     <path d="M 39.796875 15.59375 
L 41.203125 14.703125 
Q 36.90625 6.296875 33 3.203125 
Q 27.90625 -1 21.5 -1 
Q 13.203125 -1 7.84375 5.25 
Q 2.5 11.5 2.5 21.203125 
Q 2.5 33.90625 10.90625 40.90625 
Q 17.09375 46 24.40625 46 
Q 30.703125 46 35.25 42.953125 
Q 39.796875 39.90625 39.796875 35.703125 
Q 39.796875 34 38.390625 32.75 
Q 37 31.5 35.09375 31.5 
Q 31.59375 31.5 30.296875 36.09375 
L 29.703125 38.296875 
Q 28.90625 41.09375 27.703125 42.09375 
Q 26.5 43.09375 23.796875 43.09375 
Q 17.703125 43.09375 13.953125 38.296875 
Q 10.203125 33.5 10.203125 25.703125 
Q 10.203125 17.09375 14.5 11.640625 
Q 18.796875 6.203125 25.703125 6.203125 
Q 30 6.203125 33.09375 8.25 
Q 36.203125 10.296875 39.796875 15.59375 
z
" id="STIXGeneral-Regular-63"/>
     <path d="M 59.703125 16.90625 
L 55.09375 0 
L 1.203125 0 
L 1.203125 1.90625 
Q 6.90625 2.296875 8.40625 3.9375 
Q 9.90625 5.59375 9.90625 11.40625 
L 9.90625 55 
Q 9.90625 60.59375 8.34375 62.296875 
Q 6.796875 64 1.203125 64.296875 
L 1.203125 66.203125 
L 54.203125 66.203125 
L 54.59375 51.90625 
L 52.09375 51.90625 
Q 51 58.59375 48.203125 60.5 
Q 45.40625 62.40625 36.703125 62.40625 
L 23.59375 62.40625 
Q 21.40625 62.40625 20.75 61.75 
Q 20.09375 61.09375 20.09375 58.796875 
L 20.09375 36.796875 
L 35.203125 36.796875 
Q 41.5 36.796875 43.546875 38.59375 
Q 45.59375 40.40625 46.5 46.40625 
L 48.796875 46.40625 
L 48.796875 23 
L 46.5 23 
Q 45.59375 29.296875 43.59375 31 
Q 41.59375 32.703125 35.203125 32.703125 
L 20.09375 32.703125 
L 20.09375 8.40625 
Q 20.09375 5.40625 22.1875 4.546875 
Q 24.296875 3.703125 30.203125 3.703125 
L 33.796875 3.703125 
Q 44.5 3.703125 49 6.296875 
Q 53.5 8.90625 56.90625 16.90625 
z
" id="STIXGeneral-Regular-45"/>
     <path d="M 47.90625 0 
L 27.796875 0 
L 27.796875 1.5 
Q 30.296875 1.703125 31.046875 2.140625 
Q 31.796875 2.59375 31.796875 3.90625 
Q 31.796875 4.796875 31.203125 5.703125 
L 22.09375 19.703125 
L 14.203125 7.40625 
Q 12.203125 4.296875 12.203125 3.296875 
Q 12.203125 1.5 16.203125 1.5 
L 16.203125 0 
L 1.703125 0 
L 1.703125 1.5 
Q 4.203125 1.703125 5.546875 2.640625 
Q 6.90625 3.59375 9 6.59375 
L 20.40625 23.09375 
L 11 37.5 
Q 8.703125 41 7.09375 42.25 
Q 5.5 43.5 3.296875 43.5 
L 2.40625 43.5 
L 2.40625 45 
L 23.09375 45 
L 23.09375 43.5 
Q 18.796875 43.40625 18.796875 41.296875 
Q 18.796875 39.203125 23.40625 32.40625 
Q 24.703125 30.59375 24.796875 30.40625 
Q 25.296875 31.09375 27.796875 34.796875 
Q 28.296875 35.703125 29 36.703125 
Q 29.703125 37.703125 30.046875 38.296875 
Q 30.40625 38.90625 30.796875 39.5 
Q 31.203125 40.09375 31.34375 40.546875 
Q 31.5 41 31.5 41.296875 
Q 31.5 43.203125 27.5 43.5 
L 27.5 45 
L 43.296875 45 
L 43.296875 43.5 
Q 38.203125 43.296875 35.203125 39.09375 
L 26.90625 27.09375 
L 39.703125 7.5 
Q 43.59375 1.5 47.90625 1.5 
z
" id="STIXGeneral-Regular-78"/>
     <path d="M 26.59375 7.703125 
L 27.90625 6.59375 
Q 23.09375 -1 15.796875 -1 
Q 7 -1 7 11.703125 
L 7 41.796875 
L 1.703125 41.796875 
Q 1.296875 42.09375 1.296875 42.5 
Q 1.296875 43.296875 3 44.40625 
Q 6.796875 46.59375 12.703125 55.09375 
Q 12.90625 55.40625 13.65625 56.34375 
Q 14.40625 57.296875 14.703125 57.90625 
Q 15.40625 57.90625 15.40625 56.59375 
L 15.40625 45 
L 25.5 45 
L 25.5 41.796875 
L 15.40625 41.796875 
L 15.40625 13.203125 
Q 15.40625 8.40625 16.59375 6.296875 
Q 17.796875 4.203125 20.59375 4.203125 
Q 23.59375 4.203125 26.59375 7.703125 
z
" id="STIXGeneral-Regular-74"/>
    </defs>
    <g style="fill:#d95f02;" transform="translate(492.0975 -15.400003)scale(0.26 -0.26)">
     <use xlink:href="#STIXGeneral-Regular-50"/>
     <use x="55.699997" xlink:href="#STIXGeneral-Regular-65"/>
     <use x="100.099991" xlink:href="#STIXGeneral-Regular-72"/>
     <use x="133.399979" xlink:href="#STIXGeneral-Regular-69"/>
     <use x="161.199966" xlink:href="#STIXGeneral-Regular-6f"/>
     <use x="211.199951" xlink:href="#STIXGeneral-Regular-64"/>
     <use x="261.199936" xlink:href="#STIXGeneral-Regular-69"/>
     <use x="288.999924" xlink:href="#STIXGeneral-Regular-63"/>
     <use x="333.399918" xlink:href="#STIXGeneral-Regular-20"/>
     <use x="358.399902" xlink:href="#STIXGeneral-Regular-45"/>
     <use x="419.499893" xlink:href="#STIXGeneral-Regular-78"/>
     <use x="469.499878" xlink:href="#STIXGeneral-Regular-74"/>
     <use x="497.299866" xlink:href="#STIXGeneral-Regular-65"/>
     <use x="541.69986" xlink:href="#STIXGeneral-Regular-6e"/>
     <use x="591.699844" xlink:href="#STIXGeneral-Regular-73"/>
     <use x="630.599838" xlink:href="#STIXGeneral-Regular-69"/>
     <use x="658.399826" xlink:href="#STIXGeneral-Regular-6f"/>
     <use x="708.399811" xlink:href="#STIXGeneral-Regular-6e"/>
    </g>
   </g>
  </g>
 </g>
 <defs>
  <clipPath id="p961d67c0b6">
   <rect height="210.1" width="488.82" x="64.38" y="22.8"/>
  </clipPath>
 </defs>
</svg>
